<svg id="svg" xmlns="http://www.w3.org/2000/svg" xmlns:xlink="http://www.w3.org/1999/xlink" width="400" height="403.55555555555554" viewBox="0, 0, 400,403.55555555555554"><g id="svgg"><path id="path0" d="M0.000 201.778 L 0.000 403.556 200.000 403.556 L 400.000 403.556 400.000 201.778 L 400.000 0.000 200.000 0.000 L 0.000 0.000 0.000 201.778 M398.222 201.778 L 398.222 401.778 200.000 401.778 L 1.778 401.778 1.778 201.778 L 1.778 1.778 200.000 1.778 L 398.222 1.778 398.222 201.778 M196.190 50.836 C 194.235 51.963,190.121 54.344,187.048 56.127 C 181.551 59.317,170.435 65.734,155.683 74.234 C 151.562 76.608,144.190 80.862,139.302 83.688 C 134.413 86.514,130.013 89.056,129.524 89.338 C 129.035 89.620,125.378 91.733,121.397 94.034 C 117.416 96.335,107.473 102.072,99.302 106.784 C 81.674 116.947,78.730 118.658,78.730 118.741 C 78.730 118.775,79.616 119.309,80.698 119.929 C 83.553 121.561,96.849 129.220,105.581 134.261 C 107.847 135.569,109.982 136.768,110.326 136.924 C 111.014 137.238,109.425 138.113,134.857 123.427 C 141.073 119.838,148.044 115.814,150.349 114.485 C 152.654 113.157,161.511 108.042,170.032 103.120 C 178.552 98.198,188.748 92.326,192.689 90.070 L 199.854 85.968 199.864 67.365 C 199.869 57.133,199.844 48.768,199.810 48.775 C 199.775 48.782,198.146 49.709,196.190 50.836 M317.968 120.774 C 309.435 125.704,298.977 131.729,292.317 135.552 C 290.990 136.314,289.796 137.040,289.663 137.167 C 289.519 137.304,295.816 137.397,305.316 137.397 L 321.211 137.397 321.364 136.825 C 321.587 135.992,321.558 119.159,321.333 119.040 C 321.229 118.985,319.714 119.765,317.968 120.774 M125.594 148.092 C 122.165 148.592,119.642 150.699,118.576 153.956 L 117.968 155.810 117.968 172.698 L 117.968 189.587 118.548 191.021 C 119.645 193.735,121.443 195.525,123.928 196.378 C 124.588 196.605,130.128 196.721,144.889 196.819 L 164.952 196.952 165.019 205.102 L 165.086 213.252 158.565 213.420 C 154.979 213.512,144.349 213.587,134.943 213.587 L 117.841 213.587 117.841 221.714 L 117.841 229.841 144.063 229.833 C 175.361 229.824,175.326 229.827,178.003 226.922 C 180.492 224.222,180.571 223.553,180.571 205.206 C 180.571 184.949,180.360 184.009,175.269 181.622 L 173.841 180.952 162.286 180.888 C 155.930 180.853,146.844 180.796,142.095 180.761 L 133.460 180.698 133.460 172.444 L 133.460 164.190 154.466 164.126 L 175.473 164.061 175.965 162.475 C 176.983 159.195,180.388 148.432,180.505 148.127 C 180.649 147.749,128.180 147.716,125.594 148.092 M198.991 148.080 C 196.149 148.556,193.593 150.253,192.503 152.390 C 191.240 154.866,191.216 155.288,191.293 173.149 L 191.365 189.841 191.950 191.289 C 192.771 193.321,194.413 195.057,196.368 195.960 L 197.968 196.698 218.095 196.768 L 238.222 196.837 238.222 205.045 L 238.222 213.253 233.229 213.420 C 230.483 213.512,219.910 213.587,209.733 213.587 L 191.231 213.587 191.298 221.651 L 191.365 229.714 218.667 229.714 C 243.900 229.714,246.076 229.681,247.397 229.272 C 250.332 228.363,252.405 226.333,253.386 223.403 C 253.924 221.797,254.213 192.093,253.722 188.844 C 253.175 185.225,251.352 182.743,248.332 181.505 C 246.997 180.958,246.795 180.951,226.921 180.825 L 206.857 180.698 206.790 172.381 L 206.723 164.063 227.756 164.063 L 248.789 164.063 249.327 162.349 C 250.391 158.956,253.243 149.945,253.586 148.889 L 253.937 147.810 227.096 147.839 C 212.333 147.856,199.686 147.964,198.991 148.080 M274.912 148.074 C 270.420 148.662,267.573 150.842,266.420 154.577 C 265.912 156.219,265.905 156.797,265.905 193.043 L 265.905 229.841 274.667 229.841 L 283.429 229.841 283.429 213.460 L 283.429 197.079 294.456 197.079 L 305.483 197.079 305.869 195.873 C 306.082 195.210,307.234 191.646,308.429 187.953 C 309.625 184.261,310.603 181.147,310.603 181.033 C 310.603 180.919,304.489 180.825,297.016 180.825 L 283.429 180.825 283.429 172.448 L 283.429 164.071 299.721 164.071 C 308.682 164.071,316.067 164.018,316.132 163.952 C 316.284 163.801,321.270 148.364,321.270 148.046 C 321.270 147.756,277.140 147.783,274.912 148.074 M289.278 226.984 L 289.286 240.381 292.884 242.413 C 294.863 243.530,297.574 245.086,298.908 245.870 C 301.335 247.298,317.075 256.384,319.791 257.927 C 320.584 258.377,321.299 258.680,321.379 258.600 C 321.458 258.520,321.524 248.360,321.524 236.021 L 321.524 213.587 305.397 213.587 L 289.270 213.587 289.278 226.984 M106.032 243.129 C 103.517 244.576,98.775 247.304,95.492 249.190 C 82.233 256.811,78.733 258.897,78.918 259.067 C 79.024 259.165,81.054 260.359,83.429 261.720 C 89.171 265.012,114.555 279.651,121.270 283.544 C 124.203 285.245,130.146 288.678,134.476 291.173 C 138.806 293.669,148.863 299.473,156.825 304.071 C 164.787 308.669,173.187 313.518,175.492 314.846 C 177.797 316.175,180.654 317.827,181.841 318.519 C 183.029 319.210,187.543 321.821,191.873 324.321 L 199.746 328.866 199.811 310.412 C 199.863 295.858,199.809 291.894,199.557 291.656 C 199.382 291.490,197.295 290.242,194.921 288.881 C 189.687 285.884,164.573 271.402,156.825 266.914 C 131.854 252.450,111.378 240.686,111.026 240.600 C 110.794 240.544,108.546 241.682,106.032 243.129 M78.903 310.558 C 78.514 310.633,78.476 311.357,78.476 318.749 L 78.476 326.857 81.488 326.857 L 84.499 326.857 88.408 335.984 C 90.558 341.004,92.385 345.032,92.468 344.936 C 92.613 344.769,96.898 334.449,98.946 329.337 L 99.937 326.865 102.794 326.861 L 105.651 326.857 105.651 340.444 L 105.651 354.032 102.987 354.032 L 100.323 354.032 100.257 343.518 L 100.190 333.004 96.787 341.168 C 94.915 345.659,92.880 350.518,92.265 351.965 C 91.651 353.413,91.195 354.644,91.252 354.701 C 91.666 355.115,321.270 354.890,321.270 354.476 C 321.270 354.084,320.980 354.031,318.794 354.024 L 316.317 354.017 314.286 349.819 C 311.810 344.705,311.886 345.009,313.068 344.929 C 315.270 344.781,316.256 343.564,316.126 341.157 C 315.995 338.726,314.804 337.778,311.881 337.778 L 310.349 337.778 310.349 345.905 L 310.349 354.032 308.190 354.032 L 306.032 354.032 306.032 345.125 L 306.032 336.218 311.429 336.299 C 316.482 336.376,316.902 336.419,318.030 336.974 C 321.619 338.742,321.557 343.346,317.921 344.987 L 316.732 345.524 318.937 349.525 L 321.143 353.525 321.208 332.150 C 321.244 320.394,321.235 310.737,321.188 310.691 C 320.926 310.429,237.896 310.623,237.386 310.887 C 236.592 311.298,218.598 321.668,206.380 328.757 C 203.044 330.692,200.184 332.275,200.023 332.275 C 199.862 332.275,196.991 330.694,193.643 328.761 C 190.295 326.828,183.498 322.905,178.540 320.042 C 173.581 317.179,167.878 313.882,165.866 312.714 L 162.207 310.592 120.768 310.534 C 97.977 310.502,79.138 310.513,78.903 310.558 M134.095 335.886 L 134.095 344.914 137.696 340.648 C 139.676 338.301,141.321 336.346,141.351 336.302 C 141.381 336.259,141.933 336.259,142.577 336.302 L 143.748 336.381 140.699 339.992 C 139.023 341.978,137.651 343.663,137.651 343.738 C 137.651 343.860,141.406 348.533,144.556 352.331 C 145.228 353.141,145.778 353.855,145.778 353.918 C 145.778 353.981,144.606 354.026,143.175 354.018 L 140.571 354.004 137.397 350.058 L 134.222 346.112 134.152 350.072 L 134.082 354.032 131.930 354.032 L 129.778 354.032 129.778 340.444 L 129.778 326.857 131.937 326.857 L 134.095 326.857 134.095 335.886 M183.619 340.444 L 183.619 354.032 180.952 354.032 L 178.286 354.032 178.286 340.444 L 178.286 326.857 180.952 326.857 L 183.619 326.857 183.619 340.444 M231.078 327.124 C 237.822 328.218,239.659 336.701,233.693 339.194 L 232.780 339.575 234.084 340.179 C 238.665 342.302,239.748 348.896,236.021 351.969 C 234.017 353.620,232.775 353.847,225.079 353.970 L 218.159 354.080 218.159 340.468 L 218.159 326.857 223.810 326.859 C 226.917 326.860,230.188 326.979,231.078 327.124 M223.492 333.677 L 223.492 338.794 225.746 338.794 C 230.248 338.794,232.127 337.324,232.127 333.803 C 232.127 330.435,230.344 328.969,225.927 328.706 L 223.492 328.560 223.492 333.677 M81.021 343.302 L 81.016 354.032 79.727 354.032 C 78.666 354.032,78.453 354.106,78.521 354.451 C 78.595 354.831,90.246 355.045,90.617 354.674 C 90.687 354.604,83.577 338.175,81.547 333.714 L 81.027 332.571 81.021 343.302 M120.026 336.375 C 120.355 336.590,120.816 337.137,121.050 337.590 C 121.395 338.256,126.222 353.489,126.222 353.911 C 126.222 353.977,125.272 354.032,124.111 354.032 L 121.999 354.032 121.126 351.302 L 120.254 348.571 117.053 348.501 C 113.285 348.417,113.569 348.221,112.629 351.556 L 111.931 354.032 110.932 354.032 C 110.099 354.032,109.957 353.958,110.071 353.587 C 110.146 353.343,111.238 349.631,112.496 345.338 C 113.754 341.045,114.917 337.319,115.080 337.058 C 116.001 335.584,118.329 335.262,120.026 336.375 M160.254 337.016 L 160.254 337.778 156.682 337.778 C 151.961 337.778,152.127 337.662,152.127 340.961 L 152.127 343.619 155.429 343.619 L 158.730 343.619 158.730 344.508 L 158.730 345.397 155.429 345.397 L 152.127 345.397 152.131 348.508 C 152.136 352.499,151.787 352.192,156.445 352.295 L 160.381 352.381 160.462 353.220 L 160.542 354.059 154.817 353.982 C 147.154 353.879,147.937 354.887,147.937 345.114 L 147.937 337.480 148.649 336.867 C 149.354 336.260,149.416 336.254,154.808 336.254 L 160.254 336.254 160.254 337.016 M200.635 337.016 L 200.635 337.778 198.603 337.778 L 196.571 337.778 196.571 345.905 L 196.571 354.032 194.543 354.032 L 192.515 354.032 192.448 345.968 L 192.381 337.905 190.413 337.831 L 188.444 337.756 188.444 337.005 L 188.444 336.254 194.540 336.254 L 200.635 336.254 200.635 337.016 M255.746 337.016 L 255.746 337.778 252.174 337.778 C 247.453 337.778,247.619 337.662,247.619 340.961 L 247.619 343.619 250.921 343.619 L 254.222 343.619 254.222 344.508 L 254.222 345.397 250.921 345.397 L 247.619 345.397 247.623 348.508 C 247.628 352.533,247.287 352.234,251.949 352.314 L 255.873 352.381 255.954 353.220 L 256.034 354.059 250.309 353.982 C 242.689 353.879,243.452 354.787,243.347 345.708 C 243.229 335.569,242.691 336.296,250.349 336.271 L 255.746 336.254 255.746 337.016 M270.730 337.016 L 270.730 337.778 268.698 337.778 L 266.667 337.778 266.667 345.915 L 266.667 354.052 264.571 353.979 L 262.476 353.905 262.423 346.159 C 262.394 341.898,262.366 338.270,262.360 338.095 C 262.352 337.870,261.793 337.778,260.444 337.778 L 258.540 337.778 258.540 337.016 L 258.540 336.254 264.635 336.254 L 270.730 336.254 270.730 337.016 M285.206 337.016 L 285.206 337.778 283.175 337.778 L 281.143 337.778 281.143 345.905 L 281.143 354.032 279.111 354.032 L 277.079 354.032 277.079 345.905 L 277.079 337.778 275.048 337.778 L 273.016 337.778 273.016 337.016 L 273.016 336.254 279.111 336.254 L 285.206 336.254 285.206 337.016 M301.714 336.998 L 301.714 337.742 297.798 337.823 C 293.150 337.920,293.481 337.684,293.374 340.973 L 293.287 343.619 296.739 343.619 L 300.190 343.619 300.190 344.508 L 300.190 345.397 296.762 345.397 L 293.333 345.397 293.333 348.396 C 293.333 352.479,293.087 352.266,297.844 352.296 L 301.714 352.321 301.714 353.177 L 301.714 354.032 296.393 354.032 C 288.644 354.032,289.220 354.795,289.322 344.659 L 289.397 337.224 289.996 336.739 C 290.546 336.295,291.061 336.254,296.155 336.254 L 301.714 336.254 301.714 336.998 M116.325 339.111 C 115.891 340.168,114.013 346.733,114.116 346.836 C 114.172 346.892,115.474 346.905,117.008 346.866 L 119.797 346.794 118.822 343.365 C 117.398 338.360,116.949 337.595,116.325 339.111 M223.492 346.452 L 223.492 352.332 226.380 352.177 C 231.846 351.884,233.642 350.056,232.897 345.547 C 232.327 342.103,229.845 340.598,224.698 340.576 L 223.492 340.571 223.492 346.452 " stroke="none" fill="#387465" fill-rule="evenodd"></path><path id="path1" d="M1.895 2.095 C 1.829 2.270,1.804 92.241,1.840 202.032 L 1.905 401.651 199.938 401.651 L 397.971 401.651 397.969 201.943 C 397.968 92.103,397.903 2.132,397.826 2.007 C 397.588 1.621,2.042 1.709,1.895 2.095 M205.333 51.613 C 208.127 53.218,212.241 55.592,214.476 56.887 C 216.711 58.182,221.511 60.957,225.143 63.052 C 236.794 69.775,239.792 71.506,243.810 73.832 C 250.757 77.855,254.490 80.009,259.556 82.916 C 262.279 84.480,266.451 86.883,268.825 88.257 C 271.200 89.631,275.257 91.973,277.841 93.461 C 280.425 94.949,283.023 96.472,283.614 96.845 C 284.205 97.219,284.733 97.524,284.787 97.524 C 284.842 97.524,286.155 98.261,287.705 99.162 C 289.255 100.063,291.012 101.075,291.611 101.413 C 293.259 102.341,305.456 109.383,307.048 110.325 C 307.816 110.779,311.387 112.850,314.984 114.925 L 321.524 118.699 321.524 128.048 L 321.524 137.397 305.338 137.397 L 289.152 137.397 284.195 134.561 C 281.469 133.002,278.038 131.019,276.571 130.156 C 275.105 129.293,271.905 127.438,269.460 126.033 C 267.016 124.629,262.102 121.798,258.540 119.743 C 254.978 117.687,249.778 114.689,246.984 113.079 C 244.190 111.470,240.876 109.551,239.619 108.816 C 235.237 106.254,222.846 99.123,221.333 98.293 C 220.495 97.833,219.695 97.370,219.556 97.263 C 219.416 97.157,217.873 96.246,216.127 95.240 C 203.385 87.895,200.068 86.063,199.737 86.191 C 199.531 86.270,193.849 89.522,187.110 93.418 C 180.371 97.314,172.971 101.587,170.667 102.913 C 162.599 107.555,143.323 118.676,138.794 121.303 C 136.279 122.762,129.022 126.957,122.667 130.626 L 111.111 137.298 111.111 188.838 L 111.111 240.378 119.365 245.138 C 123.905 247.756,129.390 250.918,131.556 252.164 C 133.721 253.410,137.321 255.485,139.556 256.776 C 141.790 258.066,143.962 259.316,144.381 259.554 C 145.402 260.133,154.470 265.384,157.333 267.055 C 158.590 267.788,163.333 270.528,167.873 273.143 C 172.413 275.758,179.441 279.811,183.492 282.151 C 187.543 284.491,192.865 287.564,195.320 288.980 C 200.313 291.862,200.045 291.774,201.338 290.960 C 202.196 290.420,207.180 287.540,223.619 278.084 C 226.692 276.316,230.578 274.073,232.254 273.100 C 233.930 272.127,238.730 269.352,242.921 266.934 C 247.111 264.515,252.711 261.280,255.365 259.743 C 258.019 258.207,262.076 255.863,264.381 254.534 C 266.686 253.206,269.886 251.351,271.492 250.414 C 273.098 249.476,274.927 248.425,275.556 248.077 C 276.618 247.490,279.102 246.056,286.095 241.994 L 288.889 240.370 288.955 226.979 L 289.020 213.587 305.272 213.587 L 321.524 213.587 321.524 236.266 L 321.524 258.944 314.984 262.717 C 311.387 264.792,307.930 266.798,307.302 267.175 C 306.673 267.552,303.873 269.177,301.079 270.785 C 298.286 272.393,293.429 275.197,290.286 277.015 C 287.143 278.833,282.000 281.800,278.857 283.609 C 275.714 285.418,271.200 288.020,268.825 289.391 C 266.451 290.762,263.079 292.708,261.333 293.714 C 259.587 294.720,255.530 297.063,252.317 298.921 C 249.105 300.778,245.024 303.133,243.249 304.154 C 241.475 305.176,239.563 306.301,239.001 306.656 C 238.438 307.011,237.937 307.302,237.886 307.302 C 237.835 307.302,236.090 308.287,234.008 309.491 C 231.926 310.695,228.337 312.771,226.032 314.104 C 223.727 315.437,219.613 317.807,216.889 319.372 C 214.165 320.936,209.308 323.736,206.095 325.593 C 202.883 327.451,200.129 328.971,199.976 328.972 C 199.732 328.973,196.429 327.092,178.286 316.619 C 176.121 315.369,167.721 310.521,159.619 305.846 C 151.517 301.170,142.603 296.025,139.810 294.412 C 137.016 292.799,134.330 291.254,133.841 290.980 C 133.352 290.705,131.638 289.711,130.032 288.770 C 128.425 287.829,121.397 283.765,114.413 279.737 C 107.429 275.710,98.229 270.401,93.968 267.939 C 89.708 265.478,84.479 262.459,82.349 261.231 L 78.476 258.998 78.476 188.820 L 78.476 118.641 80.825 117.304 C 82.117 116.569,85.060 114.866,87.365 113.520 C 89.670 112.174,93.956 109.693,96.889 108.006 C 101.721 105.227,126.319 91.041,135.746 85.595 C 137.841 84.385,143.784 80.956,148.952 77.976 C 154.121 74.996,162.692 70.047,168.000 66.979 C 177.225 61.646,191.288 53.525,197.183 50.125 C 198.707 49.246,200.021 48.565,200.104 48.611 C 200.186 48.656,202.540 50.007,205.333 51.613 M180.571 148.039 C 180.571 148.166,180.066 149.851,179.449 151.785 C 178.831 153.719,177.683 157.330,176.896 159.810 L 175.466 164.317 154.527 164.317 L 133.587 164.317 133.587 172.444 L 133.587 180.571 152.600 180.571 C 175.513 180.571,176.058 180.643,178.508 183.955 C 180.692 186.909,180.826 188.129,180.823 205.073 C 180.821 224.354,180.475 226.082,176.148 228.468 C 173.655 229.842,173.668 229.841,144.678 229.841 L 117.841 229.841 117.841 221.587 L 117.841 213.333 141.333 213.333 L 164.825 213.333 164.825 205.215 L 164.825 197.097 145.079 197.020 C 123.152 196.935,124.102 197.008,121.484 195.216 C 120.236 194.362,118.881 192.461,118.288 190.734 C 117.886 189.564,117.699 156.911,118.084 155.117 C 118.854 151.522,121.081 149.125,124.503 148.203 C 126.077 147.779,180.571 147.620,180.571 148.039 M253.968 147.933 C 253.968 148.002,252.825 151.666,251.429 156.076 C 250.032 160.486,248.889 164.145,248.889 164.206 C 248.889 164.267,239.460 164.317,227.937 164.317 L 206.984 164.317 206.984 172.444 L 206.984 180.571 225.968 180.576 C 248.506 180.581,248.601 180.591,251.300 183.286 C 253.936 185.916,253.999 186.463,253.914 205.987 C 253.842 222.447,253.836 222.616,253.282 223.969 C 252.157 226.716,250.843 228.030,248.096 229.155 L 246.730 229.714 218.854 229.783 L 190.977 229.852 191.044 221.656 L 191.111 213.460 214.667 213.396 L 238.222 213.331 238.222 205.215 L 238.222 197.100 218.349 197.026 C 198.530 196.953,198.473 196.951,197.110 196.393 C 194.039 195.135,192.623 193.630,191.675 190.618 C 190.963 188.354,190.780 157.631,191.463 154.921 C 192.390 151.241,194.399 149.146,197.905 148.202 C 199.207 147.851,253.968 147.589,253.968 147.933 M321.457 148.127 C 321.391 148.302,320.457 151.187,319.383 154.540 C 318.308 157.892,317.169 161.435,316.852 162.413 L 316.275 164.190 299.852 164.256 L 283.429 164.321 283.429 172.446 L 283.429 180.571 297.160 180.571 L 310.891 180.571 310.718 181.143 C 310.442 182.053,307.614 190.829,306.565 194.032 L 305.609 196.952 294.519 197.019 L 283.429 197.085 283.429 213.463 L 283.429 229.841 274.540 229.841 L 265.651 229.841 265.653 193.841 C 265.654 169.890,265.744 157.290,265.922 156.195 C 266.634 151.804,269.189 149.153,273.642 148.183 C 275.836 147.706,321.638 147.652,321.457 148.127 M166.757 313.106 C 169.396 314.622,174.870 317.778,178.921 320.120 C 187.688 325.187,197.558 330.874,199.008 331.695 L 200.048 332.283 202.691 330.750 C 210.850 326.017,217.757 322.025,225.905 317.334 C 230.933 314.439,235.692 311.682,236.479 311.209 L 237.910 310.348 279.591 310.412 L 321.271 310.476 321.274 332.444 C 321.276 344.527,321.276 354.556,321.274 354.730 C 321.271 354.984,296.819 355.048,199.873 355.048 L 78.476 355.048 78.476 354.474 C 78.476 353.951,78.575 353.909,79.619 353.992 C 81.044 354.105,80.854 355.579,81.009 343.206 L 81.143 332.507 85.968 343.519 C 88.622 349.576,90.860 354.533,90.941 354.536 C 91.022 354.538,91.665 353.140,92.370 351.429 C 96.452 341.527,100.148 332.794,100.345 332.584 C 100.478 332.442,100.571 336.820,100.571 343.187 L 100.571 354.032 102.984 354.032 L 105.397 354.032 105.397 340.444 L 105.397 326.857 102.765 326.857 L 100.133 326.857 96.387 335.937 C 94.327 340.930,92.568 345.095,92.479 345.192 C 92.390 345.289,90.540 341.232,88.368 336.176 L 84.419 326.984 81.448 326.984 L 78.476 326.984 78.476 318.667 L 78.476 310.349 120.217 310.349 L 161.957 310.349 166.757 313.106 M129.894 327.175 C 129.827 327.349,129.802 333.435,129.839 340.698 L 129.905 353.905 131.867 353.960 L 133.829 354.015 133.899 349.806 L 133.968 345.598 136.889 349.243 C 141.053 354.441,140.510 354.032,143.248 354.032 C 144.580 354.032,145.530 353.931,145.481 353.794 C 145.435 353.663,143.740 351.526,141.714 349.045 C 139.689 346.564,137.893 344.343,137.723 344.109 C 137.458 343.745,137.864 343.157,140.582 339.969 L 143.750 336.254 142.652 336.254 L 141.555 336.254 137.761 340.748 L 133.968 345.241 133.902 336.049 L 133.835 326.857 131.925 326.857 C 130.632 326.857,129.977 326.960,129.894 327.175 M178.402 327.175 C 178.335 327.349,178.310 333.435,178.347 340.698 L 178.413 353.905 180.889 353.977 L 183.365 354.050 183.365 340.454 L 183.365 326.857 180.944 326.857 C 179.242 326.857,178.488 326.951,178.402 327.175 M218.159 340.389 L 218.159 353.991 222.794 354.016 C 228.400 354.046,232.101 353.717,233.934 353.027 C 239.715 350.850,239.494 342.217,233.604 340.125 L 232.402 339.698 233.640 339.109 C 239.011 336.557,237.992 329.061,232.053 327.430 C 231.155 327.183,228.711 327.022,224.444 326.927 L 218.159 326.787 218.159 340.389 M228.829 329.041 C 231.501 329.834,232.748 332.122,232.130 335.097 C 231.563 337.826,230.092 338.736,225.857 338.976 L 223.238 339.124 223.238 333.880 L 223.238 328.635 225.351 328.635 C 226.546 328.635,228.056 328.811,228.829 329.041 M116.290 336.126 C 115.054 336.798,115.182 336.448,111.383 349.518 C 110.002 354.270,110.017 354.085,111.013 353.984 C 111.783 353.907,111.824 353.837,112.601 351.238 L 113.398 348.571 116.880 348.501 L 120.362 348.430 121.169 351.041 C 122.113 354.092,122.041 354.023,124.254 354.028 C 126.382 354.033,126.442 354.864,123.663 345.871 C 120.575 335.878,119.460 334.404,116.290 336.126 M149.181 336.617 C 148.060 337.104,148.063 337.080,148.063 345.025 C 148.063 354.722,147.524 354.061,155.417 354.020 L 160.254 353.995 160.254 353.252 L 160.254 352.508 156.571 352.508 C 151.741 352.508,151.873 352.623,151.873 348.444 L 151.873 345.397 155.302 345.397 L 158.730 345.397 158.730 344.508 L 158.730 343.619 155.302 343.619 L 151.873 343.619 151.873 341.098 C 151.873 337.678,151.739 337.778,156.306 337.778 C 160.107 337.778,160.435 337.672,160.064 336.571 C 159.907 336.102,150.270 336.142,149.181 336.617 M188.698 337.016 L 188.698 337.778 190.603 337.778 L 192.508 337.778 192.508 345.915 L 192.508 354.053 194.476 353.979 L 196.444 353.905 196.512 345.841 L 196.579 337.778 198.480 337.778 L 200.381 337.778 200.381 337.016 L 200.381 336.254 194.540 336.254 L 188.698 336.254 188.698 337.016 M244.673 336.617 C 244.240 336.805,243.811 337.153,243.721 337.389 C 243.444 338.109,243.529 352.491,243.813 353.021 C 244.238 353.816,245.727 354.029,250.857 354.030 L 255.746 354.032 255.746 353.270 L 255.746 352.508 252.063 352.508 C 247.233 352.508,247.365 352.623,247.365 348.444 L 247.365 345.397 250.810 345.397 L 254.254 345.397 254.175 344.571 L 254.095 343.746 250.730 343.675 L 247.365 343.604 247.365 341.090 C 247.365 337.676,247.228 337.778,251.828 337.778 L 255.492 337.778 255.492 337.016 L 255.492 336.254 250.476 336.264 C 246.843 336.271,245.243 336.368,244.673 336.617 M258.632 336.635 C 258.285 337.539,258.715 337.778,260.690 337.778 L 262.603 337.778 262.603 345.915 L 262.603 354.053 264.571 353.979 L 266.540 353.905 266.607 345.841 L 266.674 337.778 268.575 337.778 L 270.476 337.778 270.476 337.016 L 270.476 336.254 264.627 336.254 C 259.662 336.254,258.756 336.312,258.632 336.635 M273.270 337.016 L 273.270 337.778 275.175 337.778 L 277.079 337.778 277.079 345.905 L 277.079 354.032 279.111 354.032 L 281.143 354.032 281.143 345.905 L 281.143 337.778 283.048 337.778 L 284.952 337.778 284.952 337.016 L 284.952 336.254 279.111 336.254 L 273.270 336.254 273.270 337.016 M290.884 336.430 C 289.460 336.708,289.403 336.998,289.319 344.471 C 289.205 354.563,288.766 353.995,296.698 354.017 L 301.714 354.032 301.714 353.270 L 301.714 352.508 298.015 352.508 C 293.061 352.508,293.333 352.730,293.333 348.689 L 293.333 345.397 296.635 345.397 L 299.937 345.397 299.937 344.508 L 299.937 343.619 296.635 343.619 L 293.333 343.619 293.333 341.003 C 293.333 337.623,293.123 337.778,297.702 337.778 L 301.460 337.778 301.460 337.016 L 301.460 336.254 296.444 336.289 C 293.686 336.308,291.183 336.371,290.884 336.430 M306.286 345.117 L 306.286 354.032 308.187 354.032 L 310.088 354.032 310.155 345.841 L 310.222 337.651 312.000 337.669 C 315.092 337.700,316.322 338.780,316.311 341.449 C 316.301 343.767,315.609 344.552,313.113 345.077 L 312.194 345.270 314.170 349.281 C 315.258 351.488,316.285 353.459,316.454 353.662 C 316.809 354.090,321.016 354.205,321.016 353.787 C 321.016 353.564,318.966 349.713,317.361 346.921 C 316.588 345.576,316.535 345.144,317.143 345.139 C 320.303 345.109,321.689 339.851,319.078 337.797 C 317.495 336.551,316.860 336.428,311.429 336.312 L 306.286 336.202 306.286 345.117 M117.435 338.857 C 117.736 339.324,119.873 346.265,119.873 346.774 C 119.873 346.855,118.517 346.921,116.860 346.921 L 113.847 346.921 115.044 342.894 C 116.548 337.836,116.659 337.650,117.435 338.857 M229.784 341.200 C 232.072 342.143,233.348 344.670,233.073 347.711 C 232.770 351.049,231.286 352.061,226.476 352.212 L 223.238 352.314 223.238 346.410 L 223.238 340.506 225.968 340.630 C 227.742 340.710,229.079 340.910,229.784 341.200 " stroke="none" fill="#fbfbfb" fill-rule="evenodd"></path><path id="path2" d="M200.086 51.114 C 200.039 51.986,200.030 60.086,200.067 69.116 L 200.134 85.534 200.797 85.968 C 201.243 86.260,201.395 86.289,201.264 86.058 C 201.156 85.869,201.318 85.971,201.623 86.286 C 201.929 86.600,202.293 86.857,202.433 86.857 C 202.573 86.857,203.004 87.091,203.391 87.377 C 203.778 87.663,204.336 87.916,204.633 87.938 C 204.929 87.960,205.115 88.069,205.047 88.180 C 204.978 88.290,205.101 88.381,205.318 88.381 C 205.536 88.381,205.714 88.484,205.714 88.610 C 205.714 88.736,206.057 88.959,206.476 89.105 C 206.895 89.251,207.238 89.478,207.238 89.610 C 207.238 89.742,207.527 89.922,207.879 90.011 C 208.232 90.099,208.750 90.401,209.030 90.681 C 209.310 90.961,209.877 91.258,210.290 91.340 C 210.702 91.423,210.986 91.576,210.921 91.682 C 210.856 91.787,211.344 92.116,212.005 92.413 C 212.666 92.710,213.721 93.294,214.349 93.710 C 214.978 94.127,215.778 94.611,216.127 94.787 C 216.476 94.962,216.876 95.231,217.016 95.385 C 217.156 95.539,217.803 95.860,218.454 96.099 C 219.105 96.338,219.701 96.699,219.779 96.901 C 219.857 97.104,220.146 97.270,220.421 97.270 C 220.697 97.270,220.991 97.381,221.075 97.517 C 221.159 97.652,221.708 97.992,222.296 98.272 C 223.422 98.808,223.555 98.886,225.778 100.301 C 226.546 100.790,227.689 101.451,228.317 101.769 C 228.946 102.087,229.803 102.573,230.222 102.848 C 231.166 103.468,232.661 104.194,233.064 104.228 C 233.230 104.242,233.606 104.511,233.899 104.825 C 234.192 105.140,234.582 105.397,234.764 105.397 C 234.947 105.397,235.306 105.629,235.564 105.914 C 235.821 106.198,236.178 106.374,236.358 106.305 C 236.538 106.236,236.841 106.403,237.032 106.677 C 237.224 106.950,237.741 107.299,238.182 107.453 C 238.623 107.606,238.925 107.827,238.853 107.943 C 238.718 108.161,239.704 108.591,240.094 108.485 C 240.323 108.422,243.419 110.345,244.029 110.929 C 244.220 111.111,244.505 111.218,244.662 111.166 C 244.819 111.113,245.158 111.338,245.415 111.665 C 245.672 111.991,245.996 112.188,246.135 112.102 C 246.274 112.016,246.808 112.282,247.321 112.693 C 247.834 113.104,248.568 113.518,248.952 113.614 C 249.337 113.709,249.651 113.901,249.651 114.039 C 249.651 114.178,250.488 114.683,251.512 115.162 C 252.536 115.642,253.521 116.212,253.702 116.430 C 253.883 116.647,254.207 116.825,254.424 116.825 C 254.640 116.825,254.998 116.988,255.218 117.186 C 255.600 117.529,257.255 118.509,260.317 120.204 C 261.086 120.629,262.270 121.357,262.949 121.822 C 263.628 122.286,264.382 122.667,264.624 122.667 C 264.866 122.667,265.271 122.895,265.524 123.175 C 265.777 123.454,266.122 123.683,266.291 123.683 C 266.460 123.683,266.889 123.911,267.244 124.190 C 267.599 124.470,268.063 124.698,268.276 124.698 C 268.488 124.698,268.813 124.848,268.998 125.030 C 269.182 125.212,270.048 125.753,270.921 126.231 C 271.794 126.710,272.508 127.189,272.508 127.297 C 272.508 127.404,272.715 127.492,272.968 127.492 C 273.221 127.492,273.660 127.708,273.944 127.973 C 274.639 128.620,275.961 129.288,276.158 129.090 C 276.246 129.003,276.317 129.109,276.317 129.327 C 276.317 129.547,276.627 129.800,277.016 129.897 C 277.400 129.993,278.057 130.331,278.476 130.648 C 278.895 130.966,279.752 131.478,280.381 131.787 C 282.505 132.832,283.662 133.523,283.521 133.664 C 283.444 133.741,283.991 134.098,284.738 134.457 C 285.484 134.816,286.267 135.216,286.476 135.346 C 286.686 135.476,287.029 135.652,287.238 135.738 C 287.975 136.038,288.758 136.555,288.646 136.667 C 288.583 136.729,288.784 136.783,289.091 136.787 C 289.399 136.790,289.718 136.695,289.801 136.574 C 289.883 136.454,290.197 136.337,290.499 136.314 C 290.801 136.291,291.048 136.183,291.048 136.073 C 291.048 135.963,291.133 135.896,291.238 135.923 C 291.631 136.027,292.573 135.573,292.433 135.347 C 292.301 135.134,292.650 135.003,293.143 135.081 C 293.248 135.098,293.333 134.994,293.333 134.851 C 293.333 134.583,294.566 133.976,294.940 134.061 C 295.055 134.087,295.080 133.996,294.996 133.860 C 294.831 133.593,295.717 133.008,295.943 133.234 C 296.018 133.309,296.433 133.188,296.865 132.965 C 297.716 132.525,297.925 132.235,297.206 132.493 C 296.962 132.581,296.844 132.562,296.944 132.451 C 297.044 132.340,297.442 132.215,297.828 132.172 C 298.213 132.130,298.570 131.974,298.619 131.826 C 298.669 131.677,298.859 131.556,299.042 131.556 C 299.225 131.556,299.445 131.372,299.531 131.148 C 299.616 130.924,299.848 130.803,300.045 130.878 C 300.241 130.954,300.463 130.859,300.536 130.667 C 300.610 130.476,300.919 130.186,301.223 130.023 C 301.647 129.796,301.732 129.797,301.590 130.027 C 301.481 130.203,301.732 130.159,302.194 129.919 C 302.629 129.695,302.984 129.399,302.984 129.263 C 302.984 129.127,303.070 129.029,303.175 129.046 C 303.681 129.126,304.047 128.969,304.567 128.449 C 304.878 128.137,305.307 127.880,305.519 127.878 C 305.731 127.875,305.878 127.734,305.844 127.565 C 305.811 127.395,305.929 127.312,306.106 127.380 C 306.283 127.448,306.653 127.321,306.928 127.098 C 307.203 126.875,307.268 126.776,307.072 126.878 C 306.829 127.003,306.777 126.963,306.907 126.752 C 307.013 126.581,307.259 126.503,307.454 126.578 C 307.650 126.653,307.810 126.597,307.810 126.453 C 307.810 126.310,307.915 126.257,308.043 126.337 C 308.337 126.518,309.131 125.749,308.951 125.457 C 308.721 125.086,309.337 124.893,309.725 125.216 C 309.986 125.432,310.095 125.438,310.095 125.237 C 310.095 125.081,310.181 124.981,310.286 125.016 C 310.390 125.051,310.476 124.986,310.476 124.871 C 310.476 124.556,311.334 124.142,311.621 124.319 C 311.760 124.404,311.873 124.334,311.873 124.163 C 311.873 123.992,311.945 123.924,312.033 124.012 C 312.335 124.314,313.188 123.658,313.030 123.246 C 312.902 122.914,312.941 122.902,313.270 123.175 C 313.605 123.453,313.636 123.431,313.482 123.020 C 313.317 122.580,313.342 122.572,313.778 122.921 C 314.208 123.265,314.238 123.260,314.092 122.870 C 313.972 122.548,314.034 122.478,314.335 122.594 C 314.576 122.686,314.880 122.558,315.084 122.278 C 315.274 122.020,315.429 121.894,315.429 121.999 C 315.429 122.104,316.000 121.879,316.698 121.499 C 317.397 121.119,317.968 120.712,317.968 120.595 C 317.968 120.477,318.057 120.410,318.166 120.444 C 319.060 120.732,321.184 118.815,320.317 118.502 C 319.430 118.181,318.737 117.664,318.922 117.460 C 319.026 117.346,318.982 117.326,318.824 117.416 C 318.666 117.506,318.118 117.296,317.606 116.949 C 317.094 116.602,316.587 116.317,316.478 116.317 C 316.052 116.317,313.251 114.672,312.938 114.238 C 312.755 113.985,312.402 113.778,312.152 113.778 C 311.902 113.778,311.493 113.552,311.244 113.276 C 310.994 113.000,310.688 112.836,310.565 112.913 C 310.441 112.989,309.897 112.701,309.356 112.272 C 308.814 111.843,308.274 111.490,308.154 111.486 C 308.034 111.483,307.658 111.267,307.317 111.005 C 306.977 110.743,306.529 110.594,306.323 110.673 C 306.081 110.766,306.013 110.712,306.132 110.519 C 306.238 110.348,306.169 110.222,305.968 110.222 C 305.776 110.222,305.389 110.008,305.108 109.745 C 304.826 109.483,304.319 109.184,303.980 109.081 C 303.642 108.978,303.137 108.687,302.857 108.434 C 302.578 108.181,302.035 107.896,301.651 107.801 C 301.267 107.705,300.952 107.522,300.952 107.392 C 300.952 107.263,300.467 106.946,299.873 106.689 C 299.279 106.432,298.169 105.798,297.405 105.281 C 296.642 104.764,295.816 104.326,295.571 104.307 C 295.325 104.289,295.071 104.135,295.006 103.965 C 294.875 103.625,292.748 102.615,292.095 102.583 C 291.770 102.567,291.759 102.533,292.045 102.420 C 292.410 102.276,292.009 102.020,289.620 100.876 C 289.044 100.601,288.495 100.248,288.399 100.092 C 288.303 99.937,288.064 99.810,287.869 99.810 C 287.498 99.810,285.904 98.854,285.143 98.175 C 284.898 97.956,284.643 97.772,284.576 97.766 C 284.099 97.720,282.921 97.181,282.921 97.008 C 282.921 96.892,282.691 96.723,282.411 96.634 C 282.131 96.546,281.538 96.166,281.093 95.792 C 280.648 95.417,280.248 95.142,280.204 95.179 C 279.962 95.387,278.649 94.836,278.148 94.318 C 277.829 93.986,277.368 93.714,277.126 93.714 C 276.883 93.714,276.489 93.486,276.249 93.206 C 276.010 92.927,275.660 92.698,275.470 92.698 C 275.281 92.698,274.919 92.470,274.667 92.190 C 274.414 91.911,274.070 91.683,273.902 91.683 C 273.735 91.683,273.288 91.395,272.908 91.043 C 272.529 90.692,272.110 90.472,271.976 90.554 C 271.728 90.708,268.386 88.733,268.233 88.342 C 268.186 88.224,267.888 88.127,267.570 88.127 C 267.252 88.127,266.782 87.848,266.526 87.507 C 266.270 87.166,265.983 86.936,265.888 86.995 C 265.792 87.054,265.249 86.765,264.680 86.353 C 264.112 85.941,263.354 85.531,262.998 85.441 C 262.641 85.352,262.349 85.178,262.349 85.056 C 262.349 84.794,259.982 83.556,259.481 83.556 C 259.291 83.556,258.871 83.273,258.547 82.928 C 258.223 82.584,257.880 82.349,257.786 82.408 C 257.691 82.466,257.059 82.120,256.381 81.638 C 255.703 81.156,255.047 80.762,254.922 80.762 C 254.797 80.762,254.196 80.419,253.587 80.000 C 252.978 79.581,252.358 79.238,252.208 79.238 C 252.059 79.238,251.937 79.136,251.937 79.012 C 251.937 78.887,251.622 78.707,251.238 78.611 C 250.854 78.515,250.176 78.160,249.731 77.821 C 249.287 77.483,248.801 77.206,248.652 77.206 C 248.503 77.206,248.381 77.120,248.381 77.014 C 248.381 76.909,247.833 76.571,247.163 76.264 C 246.493 75.956,245.534 75.426,245.031 75.084 C 244.528 74.743,243.849 74.379,243.523 74.275 C 243.197 74.172,242.643 73.885,242.291 73.637 C 241.224 72.887,239.456 71.833,237.714 70.908 C 236.806 70.426,235.791 69.818,235.458 69.556 C 235.125 69.294,234.742 69.079,234.608 69.079 C 234.474 69.079,234.022 68.836,233.605 68.539 C 232.909 68.043,232.271 67.682,229.524 66.229 C 229.000 65.951,228.571 65.641,228.571 65.538 C 228.571 65.436,227.971 65.042,227.238 64.664 C 226.505 64.285,224.990 63.471,223.873 62.855 C 222.756 62.239,221.475 61.540,221.027 61.302 C 220.579 61.064,220.271 60.773,220.343 60.657 C 220.415 60.540,220.239 60.444,219.951 60.444 C 219.664 60.444,219.429 60.325,219.429 60.179 C 219.429 60.034,219.286 59.933,219.111 59.955 C 218.410 60.047,218.405 60.044,216.492 58.452 C 215.786 57.865,215.152 57.655,215.033 57.970 C 214.950 58.190,214.732 58.116,214.314 57.726 C 212.903 56.410,212.561 56.127,212.381 56.124 C 211.948 56.117,211.302 55.825,211.302 55.636 C 211.302 55.525,210.795 55.241,210.177 55.005 C 209.558 54.768,208.536 54.181,207.906 53.700 C 207.276 53.219,206.618 52.825,206.444 52.825 C 206.270 52.825,205.845 52.568,205.499 52.254 C 205.153 51.940,204.955 51.829,205.059 52.008 C 205.162 52.188,204.559 51.862,203.718 51.285 C 202.878 50.708,202.069 50.311,201.920 50.403 C 201.772 50.495,201.651 50.449,201.651 50.301 C 201.651 50.153,201.565 50.056,201.460 50.086 C 201.356 50.115,201.023 50.002,200.721 49.835 C 200.187 49.539,200.169 49.575,200.086 51.114 M78.894 121.098 C 78.360 126.750,78.749 257.699,79.299 257.359 C 79.448 257.267,79.486 257.447,79.395 257.809 C 79.311 258.141,79.308 258.270,79.389 258.095 C 79.469 257.921,79.646 257.778,79.782 257.778 C 79.918 257.778,79.946 257.914,79.843 258.080 C 79.740 258.247,80.048 258.147,80.526 257.860 C 81.005 257.572,81.940 257.025,82.603 256.644 C 83.267 256.263,83.810 255.899,83.810 255.834 C 83.810 255.769,83.678 255.798,83.516 255.897 C 83.329 256.013,83.292 255.967,83.415 255.768 C 83.521 255.597,83.767 255.519,83.962 255.594 C 84.158 255.669,84.317 255.619,84.317 255.484 C 84.317 255.349,84.403 255.252,84.508 255.268 C 84.967 255.341,85.276 255.202,85.852 254.667 C 86.190 254.352,86.583 254.090,86.725 254.083 C 87.132 254.065,88.220 253.418,88.590 252.974 C 88.860 252.651,88.894 252.647,88.762 252.952 C 88.652 253.207,88.718 253.187,88.959 252.893 C 89.157 252.651,89.413 252.536,89.526 252.639 C 89.639 252.741,89.655 252.690,89.560 252.525 C 89.353 252.163,89.577 252.006,90.557 251.828 C 90.966 251.754,91.433 251.512,91.595 251.290 C 91.758 251.068,91.958 250.894,92.040 250.904 C 92.549 250.961,92.710 250.890,92.573 250.670 C 92.486 250.528,92.582 250.481,92.793 250.562 C 93.017 250.648,93.285 250.487,93.460 250.159 C 93.621 249.858,93.893 249.665,94.064 249.731 C 94.235 249.796,94.655 249.695,94.997 249.505 C 95.339 249.316,95.505 249.156,95.365 249.150 C 95.225 249.144,95.454 248.912,95.873 248.633 C 96.292 248.355,96.768 248.177,96.931 248.238 C 97.094 248.299,97.294 248.177,97.374 247.968 C 97.455 247.757,97.652 247.668,97.815 247.769 C 97.994 247.880,98.042 247.841,97.937 247.671 C 97.758 247.381,98.730 246.709,98.975 246.953 C 99.122 247.101,100.571 246.423,100.571 246.207 C 100.571 246.136,100.314 246.210,100.000 246.371 C 99.544 246.606,99.489 246.601,99.728 246.347 C 99.893 246.172,100.341 245.995,100.724 245.953 C 101.107 245.911,101.522 245.695,101.646 245.473 C 101.771 245.250,101.980 245.135,102.111 245.216 C 102.242 245.297,102.349 245.236,102.349 245.079 C 102.349 244.923,102.463 244.866,102.603 244.952 C 102.743 245.039,102.857 244.982,102.857 244.825 C 102.857 244.669,102.971 244.612,103.111 244.698 C 103.251 244.785,103.365 244.747,103.365 244.614 C 103.365 244.481,103.637 244.304,103.970 244.221 C 104.302 244.137,104.634 243.839,104.708 243.558 C 104.824 243.115,105.259 242.960,106.072 243.070 C 106.165 243.083,106.342 242.911,106.466 242.689 C 106.590 242.467,106.858 242.286,107.060 242.286 C 107.263 242.286,107.429 242.159,107.429 242.005 C 107.429 241.850,107.600 241.789,107.810 241.870 C 108.019 241.950,108.190 241.905,108.190 241.770 C 108.190 241.635,108.293 241.552,108.419 241.587 C 108.545 241.622,108.649 241.547,108.650 241.420 C 108.654 241.065,109.428 240.712,109.756 240.914 C 109.949 241.034,109.977 240.981,109.839 240.758 C 109.688 240.514,109.747 240.466,110.052 240.583 C 110.443 240.733,110.468 237.081,110.411 188.968 C 110.377 160.491,110.435 137.244,110.540 137.309 C 110.644 137.374,110.730 137.366,110.730 137.291 C 110.730 137.010,109.179 136.368,108.906 136.537 C 108.729 136.646,108.691 136.599,108.804 136.415 C 108.922 136.224,108.649 135.974,108.045 135.722 C 107.525 135.505,106.937 135.163,106.736 134.963 C 106.536 134.762,106.267 134.663,106.138 134.743 C 106.010 134.822,105.905 134.765,105.905 134.615 C 105.905 134.465,105.362 134.087,104.698 133.774 C 104.035 133.462,103.408 133.092,103.305 132.952 C 103.203 132.813,103.117 132.783,103.115 132.886 C 103.113 132.990,102.879 132.876,102.595 132.632 C 102.311 132.389,101.997 132.181,101.897 132.169 C 101.433 132.113,100.657 131.685,100.239 131.255 C 99.986 130.995,99.672 130.849,99.540 130.930 C 99.409 131.011,99.302 130.960,99.302 130.817 C 99.302 130.673,99.111 130.629,98.879 130.718 C 98.604 130.823,98.518 130.781,98.632 130.596 C 98.729 130.439,98.577 130.188,98.293 130.036 C 98.010 129.884,97.774 129.850,97.770 129.959 C 97.765 130.069,97.594 129.937,97.389 129.666 C 97.184 129.395,97.014 129.280,97.012 129.412 C 97.010 129.543,96.924 129.530,96.822 129.383 C 96.551 128.995,94.605 127.846,94.827 128.205 C 94.930 128.372,94.893 128.508,94.745 128.508 C 94.597 128.508,94.476 128.339,94.476 128.132 C 94.476 127.925,94.190 127.684,93.841 127.596 C 93.492 127.509,93.206 127.328,93.206 127.196 C 93.206 127.063,93.092 127.025,92.952 127.111 C 92.813 127.197,92.698 127.147,92.698 126.999 C 92.698 126.851,92.613 126.744,92.508 126.760 C 91.975 126.844,91.672 126.699,91.834 126.437 C 91.938 126.268,91.904 126.212,91.754 126.305 C 91.610 126.394,91.186 126.183,90.813 125.837 C 90.439 125.490,89.996 125.193,89.828 125.177 C 89.661 125.161,89.410 125.121,89.270 125.089 C 89.130 125.056,88.873 125.012,88.698 124.991 C 88.524 124.970,88.381 124.774,88.381 124.556 C 88.381 124.339,88.267 124.231,88.127 124.317 C 87.987 124.404,87.873 124.347,87.873 124.190 C 87.873 124.034,87.758 123.978,87.617 124.065 C 87.477 124.152,87.296 124.051,87.215 123.842 C 87.135 123.632,86.908 123.522,86.711 123.598 C 86.514 123.673,86.283 123.552,86.197 123.328 C 86.111 123.104,85.818 122.921,85.545 122.921 C 85.272 122.921,85.115 122.815,85.195 122.685 C 85.335 122.459,84.393 122.004,84.000 122.108 C 83.895 122.136,83.810 122.038,83.810 121.890 C 83.810 121.742,83.702 121.687,83.571 121.768 C 83.440 121.849,83.215 121.713,83.071 121.466 C 82.927 121.218,82.806 121.102,82.801 121.206 C 82.797 121.311,82.565 121.168,82.286 120.889 C 81.645 120.248,81.064 120.198,81.556 120.825 C 81.872 121.228,81.863 121.237,81.463 120.924 C 81.220 120.733,81.077 120.488,81.144 120.379 C 81.269 120.177,80.539 119.759,80.190 119.833 C 80.086 119.855,80.000 119.783,80.000 119.673 C 80.000 119.563,79.787 119.457,79.527 119.438 C 79.124 119.407,79.031 119.652,78.894 121.098 M288.762 241.071 C 288.762 241.172,288.612 241.196,288.428 241.126 C 288.245 241.056,287.884 241.231,287.627 241.515 C 287.370 241.799,287.023 242.032,286.857 242.032 C 286.691 242.032,286.348 242.260,286.095 242.540 C 285.842 242.819,285.499 243.048,285.331 243.048 C 285.164 243.048,284.718 243.333,284.341 243.683 C 283.965 244.032,283.486 244.317,283.278 244.317 C 283.070 244.317,282.657 244.543,282.361 244.819 C 282.064 245.095,281.412 245.456,280.911 245.620 C 279.997 245.920,278.079 247.019,277.841 247.380 C 277.770 247.486,277.228 247.767,276.636 248.004 C 276.043 248.241,275.622 248.537,275.699 248.662 C 275.776 248.787,275.613 248.889,275.336 248.889 C 275.059 248.889,274.493 249.175,274.078 249.524 C 273.663 249.873,273.202 250.159,273.054 250.159 C 272.906 250.159,272.363 250.444,271.849 250.794 C 271.334 251.143,270.777 251.429,270.611 251.429 C 270.444 251.429,270.165 251.695,269.991 252.022 C 269.772 252.430,269.198 252.757,268.150 253.071 C 267.312 253.322,266.304 253.798,265.911 254.129 C 265.518 254.460,265.087 254.730,264.953 254.730 C 264.820 254.730,263.928 255.244,262.972 255.872 C 262.017 256.499,261.017 257.082,260.751 257.166 C 260.485 257.251,260.050 257.537,259.784 257.803 C 259.519 258.068,259.068 258.286,258.782 258.286 C 258.495 258.286,257.987 258.582,257.652 258.944 C 257.316 259.306,256.931 259.533,256.795 259.449 C 256.660 259.365,256.397 259.441,256.211 259.617 C 256.025 259.793,255.563 260.097,255.183 260.292 C 254.804 260.488,254.554 260.745,254.627 260.864 C 254.700 260.982,254.551 261.079,254.296 261.079 C 254.041 261.079,253.377 261.392,252.821 261.774 C 251.440 262.722,249.965 263.563,248.825 264.050 C 248.302 264.275,247.873 264.547,247.873 264.656 C 247.873 264.854,244.629 266.667,244.275 266.667 C 244.173 266.667,243.598 266.995,242.997 267.397 C 242.396 267.798,241.639 268.209,241.314 268.309 C 240.989 268.409,240.788 268.556,240.868 268.635 C 241.159 268.927,240.424 269.460,239.730 269.460 C 239.336 269.460,238.941 269.579,238.851 269.725 C 238.697 269.973,236.721 271.324,236.444 271.369 C 235.837 271.469,234.879 271.950,233.858 272.668 C 233.188 273.139,232.547 273.524,232.433 273.524 C 232.319 273.524,231.352 274.092,230.284 274.786 C 229.216 275.480,228.049 276.121,227.689 276.211 C 227.330 276.302,226.896 276.562,226.724 276.791 C 226.553 277.019,225.498 277.656,224.381 278.205 C 223.263 278.754,222.311 279.297,222.265 279.411 C 222.218 279.526,222.047 279.620,221.884 279.621 C 221.721 279.622,220.787 280.126,219.810 280.740 C 218.832 281.355,217.652 282.097,217.189 282.390 C 216.725 282.682,216.188 282.921,215.995 282.921 C 215.802 282.921,215.553 283.063,215.441 283.238 C 215.329 283.413,214.815 283.771,214.297 284.034 C 213.780 284.297,213.109 284.742,212.807 285.024 C 212.504 285.306,211.960 285.569,211.597 285.609 C 211.234 285.649,210.819 285.844,210.674 286.042 C 210.529 286.240,210.150 286.485,209.832 286.586 C 209.514 286.687,208.957 287.044,208.595 287.380 C 208.233 287.716,207.827 287.923,207.695 287.841 C 207.562 287.759,207.229 287.933,206.955 288.227 C 206.681 288.521,206.295 288.762,206.098 288.762 C 205.901 288.762,205.648 288.914,205.536 289.100 C 205.325 289.452,203.377 290.519,201.992 291.041 C 201.552 291.207,201.134 291.563,201.064 291.831 C 200.980 292.149,200.797 292.266,200.538 292.167 C 200.180 292.029,200.138 293.740,200.118 309.499 C 200.106 319.116,200.074 327.270,200.048 327.619 C 199.986 328.434,200.722 328.373,202.140 327.444 C 202.686 327.087,203.200 326.808,203.281 326.826 C 203.362 326.843,203.657 326.629,203.937 326.349 C 204.216 326.070,204.659 325.841,204.921 325.841 C 205.184 325.841,205.540 325.670,205.714 325.460 C 205.888 325.251,206.170 325.079,206.341 325.079 C 206.512 325.079,206.855 324.855,207.103 324.581 C 207.351 324.306,208.047 323.893,208.650 323.663 C 209.252 323.433,209.797 323.109,209.861 322.942 C 209.925 322.775,210.447 322.484,211.021 322.295 C 211.594 322.105,212.063 321.862,212.063 321.754 C 212.063 321.646,212.298 321.484,212.584 321.393 C 212.871 321.302,213.454 320.886,213.880 320.470 C 214.307 320.053,214.798 319.766,214.972 319.833 C 215.146 319.900,215.609 319.679,216.001 319.342 C 216.393 319.006,216.868 318.730,217.055 318.730 C 217.243 318.730,217.637 318.490,217.930 318.197 C 218.223 317.904,218.754 317.632,219.109 317.593 C 219.464 317.554,219.858 317.337,219.985 317.110 C 220.112 316.884,220.368 316.698,220.553 316.698 C 220.739 316.698,221.081 316.441,221.314 316.127 C 221.547 315.813,221.655 315.721,221.553 315.923 C 221.443 316.142,221.694 316.059,222.175 315.716 C 222.618 315.401,223.113 315.225,223.276 315.325 C 223.459 315.438,223.502 315.396,223.389 315.214 C 223.274 315.028,223.402 314.921,223.739 314.921 C 224.031 314.921,224.336 314.749,224.416 314.540 C 224.496 314.330,224.732 314.159,224.940 314.159 C 225.148 314.159,225.650 313.922,226.056 313.633 C 226.462 313.345,226.794 313.180,226.794 313.267 C 226.794 313.354,227.137 313.223,227.556 312.975 C 227.975 312.728,228.317 312.402,228.317 312.252 C 228.317 311.956,230.822 310.603,231.370 310.603 C 231.555 310.603,231.902 310.426,232.142 310.209 C 232.381 309.992,233.305 309.439,234.194 308.979 C 235.082 308.520,235.778 308.003,235.740 307.831 C 235.701 307.659,235.780 307.586,235.913 307.668 C 236.237 307.869,238.141 306.864,238.320 306.398 C 238.397 306.197,238.655 306.032,238.893 306.032 C 239.130 306.032,239.506 305.872,239.726 305.677 C 240.115 305.332,240.919 304.851,243.302 303.539 C 245.480 302.339,245.716 302.225,246.032 302.224 C 246.206 302.223,246.349 302.105,246.349 301.963 C 246.349 301.820,246.663 301.565,247.048 301.397 C 247.432 301.228,247.837 300.945,247.949 300.767 C 248.061 300.590,248.326 300.444,248.538 300.444 C 248.749 300.444,249.287 300.173,249.731 299.840 C 250.176 299.508,251.111 298.962,251.810 298.626 C 252.508 298.291,253.563 297.706,254.154 297.326 C 254.745 296.946,255.278 296.635,255.340 296.635 C 255.402 296.635,256.219 296.121,257.157 295.492 C 258.094 294.863,259.002 294.349,259.174 294.349 C 259.346 294.349,259.760 294.136,260.093 293.876 C 260.426 293.616,260.984 293.316,261.333 293.210 C 261.683 293.103,262.291 292.630,262.685 292.159 C 263.247 291.487,263.532 291.334,264.004 291.452 C 264.335 291.535,264.755 291.477,264.938 291.322 C 266.014 290.409,267.640 289.312,267.751 289.423 C 267.903 289.575,270.617 287.880,270.866 287.478 C 270.959 287.327,271.188 287.262,271.374 287.333 C 271.560 287.405,272.136 287.127,272.653 286.716 C 273.170 286.305,273.703 285.968,273.836 285.968 C 273.969 285.968,274.369 285.740,274.724 285.460 C 275.080 285.181,275.583 284.952,275.844 284.952 C 276.104 284.952,276.317 284.846,276.317 284.716 C 276.317 284.585,276.548 284.406,276.829 284.316 C 277.110 284.227,277.277 284.051,277.200 283.926 C 277.122 283.800,277.378 283.620,277.767 283.525 C 278.157 283.429,278.954 283.026,279.538 282.628 C 280.122 282.230,280.699 281.905,280.821 281.905 C 280.943 281.905,281.498 281.570,282.053 281.162 C 282.609 280.753,283.375 280.340,283.754 280.245 C 284.136 280.149,284.444 279.895,284.444 279.676 C 284.444 279.459,284.517 279.353,284.605 279.441 C 284.775 279.611,287.052 278.381,287.196 278.041 C 287.242 277.931,287.499 277.841,287.767 277.841 C 288.035 277.841,288.254 277.756,288.255 277.651 C 288.255 277.546,288.906 277.117,289.701 276.698 C 290.495 276.279,291.352 275.737,291.604 275.492 C 291.857 275.248,292.349 275.048,292.698 275.048 C 293.048 275.048,293.333 274.928,293.333 274.781 C 293.333 274.634,293.762 274.336,294.286 274.118 C 294.810 273.901,295.329 273.564,295.441 273.369 C 295.553 273.175,295.854 273.016,296.111 273.016 C 296.368 273.016,297.134 272.636,297.813 272.171 C 299.131 271.269,301.003 270.190,303.873 268.678 C 304.851 268.163,305.622 267.614,305.587 267.458 C 305.552 267.302,305.737 267.175,305.997 267.175 C 306.258 267.175,306.744 266.965,307.077 266.710 C 307.410 266.454,308.444 265.878,309.374 265.430 C 310.304 264.982,311.204 264.448,311.373 264.244 C 311.543 264.040,311.834 263.873,312.020 263.873 C 312.206 263.873,312.779 263.587,313.294 263.238 C 313.809 262.889,314.382 262.603,314.569 262.603 C 314.756 262.603,315.092 262.324,315.315 261.984 C 315.538 261.643,315.861 261.418,316.033 261.484 C 316.205 261.550,316.824 261.257,317.409 260.834 C 317.993 260.410,318.640 260.063,318.846 260.063 C 319.052 260.063,319.343 259.835,319.492 259.556 C 319.642 259.276,319.988 259.048,320.263 259.048 C 321.505 259.048,320.210 257.825,318.737 257.607 C 318.531 257.577,318.241 257.386,318.093 257.182 C 317.660 256.590,315.166 255.214,314.864 255.400 C 314.712 255.494,314.657 255.459,314.741 255.323 C 314.825 255.187,314.267 254.715,313.500 254.275 C 312.733 253.835,312.174 253.585,312.258 253.721 C 312.342 253.857,312.290 253.968,312.142 253.968 C 311.994 253.968,311.873 253.774,311.873 253.537 C 311.873 253.214,311.800 253.178,311.585 253.393 C 311.268 253.710,310.603 253.241,310.603 252.702 C 310.603 252.544,310.489 252.485,310.349 252.571 C 310.210 252.658,310.095 252.601,310.095 252.444 C 310.095 252.288,309.981 252.231,309.841 252.317 C 309.702 252.404,309.587 252.347,309.587 252.190 C 309.587 252.034,309.493 251.965,309.379 252.035 C 309.264 252.106,308.975 251.937,308.737 251.659 C 308.499 251.381,308.193 251.222,308.057 251.306 C 307.921 251.390,307.810 251.340,307.810 251.196 C 307.810 250.846,306.499 250.198,306.087 250.344 C 305.908 250.408,305.794 250.336,305.833 250.185 C 305.945 249.753,303.363 248.357,303.043 248.677 C 302.858 248.862,302.790 248.800,302.817 248.472 C 302.843 248.166,302.701 248.012,302.415 248.035 C 302.172 248.054,302.029 247.980,302.097 247.871 C 302.164 247.762,302.043 247.604,301.827 247.522 C 301.604 247.436,301.500 247.479,301.587 247.619 C 301.674 247.760,301.570 247.802,301.348 247.717 C 301.132 247.634,301.013 247.472,301.085 247.357 C 301.216 247.144,300.235 246.710,299.854 246.813 C 299.739 246.844,299.709 246.765,299.788 246.637 C 299.932 246.405,298.472 245.587,297.915 245.587 C 297.753 245.587,297.683 245.486,297.760 245.363 C 297.919 245.105,296.417 244.416,295.932 244.524 C 295.756 244.563,295.641 244.447,295.679 244.266 C 295.716 244.081,295.560 243.967,295.321 244.007 C 295.087 244.045,294.734 243.846,294.536 243.564 C 294.338 243.282,294.101 243.126,294.009 243.219 C 293.917 243.311,293.841 243.246,293.841 243.075 C 293.841 242.904,293.727 242.834,293.587 242.921 C 293.448 243.007,293.333 242.938,293.333 242.766 C 293.333 242.595,293.267 242.522,293.185 242.603 C 293.104 242.685,292.814 242.528,292.541 242.255 C 292.268 241.982,291.935 241.827,291.800 241.910 C 291.666 241.994,291.556 241.960,291.556 241.836 C 291.556 241.478,290.367 240.936,289.528 240.912 C 289.106 240.899,288.762 240.971,288.762 241.071 " stroke="none" fill="#6dc450" fill-rule="evenodd"></path><path id="path3" d="M199.921 50.576 C 199.967 52.353,199.974 52.373,200.061 50.982 C 200.150 49.560,200.168 49.528,200.711 49.830 C 201.018 50.000,201.356 50.115,201.460 50.086 C 201.565 50.056,201.651 50.153,201.651 50.301 C 201.651 50.449,201.768 50.497,201.912 50.408 C 202.056 50.319,202.828 50.682,203.627 51.215 C 204.426 51.748,205.154 52.160,205.245 52.132 C 205.337 52.103,205.551 52.248,205.721 52.453 C 205.891 52.658,206.195 52.825,206.396 52.825 C 206.596 52.825,207.276 53.219,207.906 53.700 C 208.536 54.181,209.558 54.768,210.177 55.005 C 210.795 55.241,211.302 55.525,211.302 55.636 C 211.302 55.812,212.336 56.265,212.508 56.164 C 212.569 56.129,213.010 56.510,214.314 57.726 C 214.732 58.116,214.950 58.190,215.033 57.970 C 215.157 57.643,215.850 57.892,216.557 58.516 C 217.875 59.680,218.850 60.257,219.024 59.974 C 219.230 59.641,215.204 57.309,214.825 57.543 C 214.641 57.658,214.592 57.621,214.699 57.447 C 214.890 57.138,213.503 56.296,213.239 56.560 C 213.151 56.648,213.079 56.595,213.079 56.442 C 213.079 56.289,212.422 55.793,211.619 55.339 C 210.816 54.885,208.019 53.274,205.404 51.760 C 199.261 48.202,199.863 48.332,199.921 50.576 M199.935 69.209 C 199.877 84.697,199.901 85.736,200.317 85.994 C 200.562 86.146,203.105 87.619,205.968 89.268 C 208.832 90.917,212.511 93.043,214.145 93.991 C 215.779 94.940,217.061 95.575,216.995 95.403 C 216.929 95.231,216.564 94.954,216.184 94.787 C 215.803 94.620,214.978 94.139,214.349 93.718 C 213.721 93.297,212.666 92.710,212.005 92.413 C 211.344 92.116,210.856 91.787,210.921 91.682 C 210.986 91.576,210.702 91.423,210.290 91.340 C 209.877 91.258,209.310 90.961,209.030 90.681 C 208.750 90.401,208.232 90.099,207.879 90.011 C 207.527 89.922,207.238 89.742,207.238 89.610 C 207.238 89.478,206.895 89.251,206.476 89.105 C 206.057 88.959,205.714 88.736,205.714 88.610 C 205.714 88.484,205.536 88.381,205.318 88.381 C 205.101 88.381,204.978 88.290,205.047 88.180 C 205.115 88.069,204.929 87.960,204.633 87.938 C 204.336 87.916,203.778 87.663,203.391 87.377 C 203.004 87.091,202.576 86.857,202.441 86.857 C 202.306 86.857,201.995 86.657,201.751 86.413 C 201.506 86.168,201.212 85.954,201.098 85.937 C 200.983 85.919,200.768 85.890,200.620 85.873 C 200.472 85.856,200.433 85.709,200.532 85.548 C 200.644 85.367,200.602 85.324,200.422 85.435 C 200.204 85.569,200.114 81.457,200.063 69.157 L 199.996 52.698 199.935 69.209 M220.328 60.682 C 220.256 60.798,220.537 61.034,220.952 61.206 C 221.393 61.389,221.639 61.639,221.543 61.807 C 221.453 61.966,221.461 62.022,221.561 61.933 C 221.661 61.843,222.679 62.267,223.824 62.874 C 224.968 63.480,226.505 64.286,227.238 64.665 C 227.971 65.043,228.571 65.436,228.571 65.538 C 228.571 65.641,229.000 65.951,229.524 66.229 C 232.271 67.682,232.909 68.043,233.605 68.539 C 234.022 68.836,234.474 69.079,234.608 69.079 C 234.742 69.079,235.125 69.294,235.458 69.556 C 235.791 69.818,236.806 70.426,237.714 70.908 C 239.456 71.833,241.224 72.887,242.291 73.637 C 242.643 73.885,243.197 74.172,243.523 74.275 C 243.849 74.379,244.528 74.743,245.031 75.084 C 245.534 75.426,246.493 75.956,247.163 76.264 C 247.833 76.571,248.381 76.909,248.381 77.014 C 248.381 77.120,248.503 77.206,248.652 77.206 C 248.801 77.206,249.287 77.483,249.731 77.821 C 250.176 78.160,250.854 78.515,251.238 78.611 C 251.622 78.707,251.937 78.887,251.937 79.012 C 251.937 79.136,252.059 79.238,252.208 79.238 C 252.358 79.238,252.978 79.581,253.587 80.000 C 254.196 80.419,254.797 80.762,254.922 80.762 C 255.047 80.762,255.703 81.156,256.381 81.638 C 257.059 82.120,257.691 82.466,257.786 82.408 C 257.880 82.349,258.223 82.584,258.547 82.928 C 258.871 83.273,259.291 83.556,259.481 83.556 C 259.982 83.556,262.349 84.794,262.349 85.056 C 262.349 85.178,262.641 85.352,262.998 85.441 C 263.354 85.531,264.115 85.944,264.689 86.359 C 265.263 86.775,265.798 87.048,265.880 86.967 C 266.059 86.788,266.687 87.173,258.540 82.464 C 248.093 76.427,244.783 74.521,243.683 73.913 C 243.124 73.604,242.152 73.031,241.524 72.641 C 240.895 72.251,237.638 70.358,234.286 68.434 C 230.933 66.511,226.451 63.932,224.324 62.704 C 222.198 61.476,220.400 60.566,220.328 60.682 M266.159 86.952 C 266.159 87.358,267.096 88.127,267.591 88.127 C 267.897 88.127,268.186 88.224,268.233 88.342 C 268.324 88.575,271.568 90.667,271.837 90.667 C 272.446 90.667,271.676 90.036,269.651 88.875 C 268.359 88.134,267.044 87.364,266.730 87.163 C 266.416 86.963,266.159 86.868,266.159 86.952 M272.934 91.073 C 273.010 91.271,273.337 91.499,273.660 91.581 C 273.984 91.662,274.446 91.947,274.687 92.213 C 274.929 92.480,275.281 92.698,275.470 92.698 C 275.660 92.698,276.010 92.927,276.249 93.206 C 276.489 93.486,276.883 93.714,277.126 93.714 C 277.369 93.714,277.799 93.963,278.082 94.267 C 278.613 94.837,280.381 95.583,280.381 95.237 C 280.381 95.062,279.519 94.543,274.239 91.535 C 273.379 91.046,272.852 90.859,272.934 91.073 M280.971 95.676 C 281.225 95.968,281.768 96.346,282.177 96.516 C 282.586 96.685,282.921 96.913,282.921 97.022 C 282.921 97.178,284.368 97.824,284.635 97.787 C 284.670 97.782,284.898 97.956,285.143 98.175 C 285.904 98.854,287.498 99.810,287.869 99.810 C 288.064 99.810,288.303 99.937,288.399 100.092 C 288.495 100.248,289.044 100.600,289.620 100.876 C 290.196 101.151,290.990 101.548,291.384 101.759 C 291.779 101.969,292.167 102.077,292.246 101.997 C 292.325 101.918,292.174 101.772,291.909 101.673 C 291.645 101.574,290.696 101.047,289.801 100.503 C 288.906 99.958,286.849 98.765,285.230 97.852 C 283.611 96.939,281.886 95.957,281.397 95.668 L 280.508 95.144 280.971 95.676 M217.651 95.995 C 221.829 98.556,238.670 108.074,238.848 107.976 C 238.983 107.901,238.700 107.679,238.220 107.483 C 237.741 107.288,237.199 106.914,237.016 106.654 C 236.834 106.393,236.538 106.236,236.358 106.305 C 236.178 106.374,235.821 106.198,235.564 105.914 C 235.306 105.629,234.947 105.397,234.764 105.397 C 234.582 105.397,234.192 105.140,233.899 104.825 C 233.606 104.511,233.230 104.242,233.064 104.228 C 232.661 104.194,231.166 103.468,230.222 102.848 C 229.803 102.573,228.946 102.087,228.317 101.769 C 227.689 101.451,226.546 100.790,225.778 100.301 C 223.555 98.886,223.422 98.808,222.296 98.272 C 221.708 97.992,221.159 97.652,221.075 97.517 C 220.991 97.381,220.697 97.270,220.421 97.270 C 220.146 97.270,219.858 97.107,219.782 96.909 C 219.706 96.710,219.193 96.367,218.642 96.147 C 217.539 95.705,217.058 95.632,217.651 95.995 M292.063 102.348 C 291.732 102.563,291.736 102.596,292.095 102.599 C 292.720 102.605,294.871 103.614,295.006 103.965 C 295.071 104.135,295.325 104.289,295.571 104.307 C 295.816 104.326,296.642 104.764,297.405 105.281 C 298.169 105.798,299.279 106.432,299.873 106.689 C 300.467 106.946,300.952 107.263,300.952 107.392 C 300.952 107.522,301.267 107.705,301.651 107.801 C 302.035 107.896,302.578 108.181,302.857 108.434 C 303.137 108.687,303.642 108.978,303.980 109.081 C 304.319 109.184,304.826 109.483,305.108 109.745 C 305.389 110.008,305.776 110.222,305.968 110.222 C 306.169 110.222,306.238 110.348,306.132 110.519 C 306.013 110.712,306.081 110.766,306.323 110.673 C 306.529 110.594,306.977 110.743,307.317 111.005 C 307.658 111.267,308.029 111.483,308.142 111.486 C 308.255 111.490,308.869 111.890,309.507 112.377 C 310.144 112.863,310.753 113.207,310.859 113.141 C 310.966 113.075,311.195 113.192,311.367 113.400 C 311.540 113.608,311.889 113.778,312.144 113.778 C 312.398 113.778,312.755 113.985,312.938 114.238 C 313.250 114.671,316.052 116.317,316.477 116.317 C 316.585 116.317,317.164 116.632,317.765 117.016 C 318.366 117.400,319.086 117.860,319.365 118.039 C 319.644 118.218,320.073 118.431,320.317 118.513 C 320.562 118.595,320.762 118.744,320.762 118.844 C 320.762 118.945,320.933 119.026,321.143 119.026 C 321.787 119.026,320.064 117.707,319.185 117.527 C 319.005 117.490,318.800 117.388,318.730 117.299 C 318.610 117.147,314.856 114.954,304.762 109.137 C 302.317 107.729,298.688 105.621,296.697 104.454 C 292.503 101.996,292.563 102.024,292.063 102.348 M240.000 108.674 C 240.000 108.801,240.943 109.447,242.095 110.111 C 243.248 110.775,244.585 111.553,245.067 111.839 L 245.944 112.359 245.450 111.703 C 245.178 111.343,244.826 111.097,244.669 111.158 C 244.512 111.218,244.225 111.117,244.033 110.932 C 242.929 109.876,240.000 108.236,240.000 108.674 M246.095 112.193 C 246.095 112.299,246.352 112.547,246.667 112.744 C 247.166 113.056,255.596 117.918,258.032 119.298 C 258.521 119.575,259.549 120.178,260.317 120.637 C 261.086 121.096,262.343 121.815,263.111 122.234 C 263.879 122.654,265.308 123.476,266.286 124.062 C 267.263 124.647,268.578 125.416,269.206 125.769 C 270.290 126.377,283.082 133.755,283.498 134.012 C 283.607 134.078,283.664 133.990,283.625 133.816 C 283.555 133.494,282.457 132.808,280.381 131.787 C 279.752 131.478,278.895 130.966,278.476 130.648 C 278.057 130.331,277.400 129.993,277.016 129.897 C 276.627 129.800,276.317 129.547,276.317 129.327 C 276.317 129.109,276.246 129.003,276.158 129.090 C 275.961 129.288,274.639 128.620,273.944 127.973 C 273.660 127.708,273.221 127.492,272.968 127.492 C 272.715 127.492,272.508 127.404,272.508 127.297 C 272.508 127.189,271.794 126.710,270.921 126.231 C 270.048 125.753,269.182 125.212,268.998 125.030 C 268.813 124.848,268.488 124.698,268.276 124.698 C 268.063 124.698,267.599 124.470,267.244 124.190 C 266.889 123.911,266.460 123.683,266.291 123.683 C 266.122 123.683,265.777 123.454,265.524 123.175 C 265.271 122.895,264.866 122.667,264.624 122.667 C 264.382 122.667,263.628 122.286,262.949 121.822 C 262.270 121.357,261.086 120.629,260.317 120.204 C 257.255 118.509,255.600 117.529,255.218 117.186 C 254.998 116.988,254.640 116.825,254.424 116.825 C 254.207 116.825,253.883 116.647,253.702 116.430 C 253.521 116.212,252.536 115.642,251.512 115.162 C 250.488 114.683,249.651 114.178,249.651 114.039 C 249.651 113.901,249.337 113.710,248.952 113.616 C 248.568 113.522,247.857 113.119,247.371 112.722 C 246.483 111.996,246.095 111.835,246.095 112.193 M78.627 119.267 C 78.543 119.487,78.475 151.035,78.478 189.373 L 78.482 259.078 79.237 258.540 C 79.902 258.067,79.875 257.016,79.208 257.418 C 78.781 257.675,78.730 250.432,78.732 188.980 C 78.734 122.405,78.764 119.226,79.403 119.471 C 79.916 119.668,79.817 119.421,79.263 119.125 C 78.893 118.926,78.745 118.960,78.627 119.267 M309.060 125.016 C 308.898 125.546,308.920 125.940,309.106 125.825 C 309.236 125.745,309.264 125.553,309.169 125.400 C 309.057 125.218,309.149 125.179,309.432 125.287 C 309.691 125.387,309.805 125.353,309.712 125.203 C 309.575 124.981,309.111 124.848,309.060 125.016 M91.175 126.235 C 92.056 126.833,92.557 127.007,91.937 126.499 C 91.587 126.213,91.187 125.979,91.048 125.978 C 90.908 125.977,90.965 126.092,91.175 126.235 M294.935 133.738 L 294.222 134.396 295.048 133.847 C 295.804 133.345,296.050 133.079,295.760 133.079 C 295.698 133.079,295.327 133.376,294.935 133.738 M284.952 134.812 C 287.115 136.149,288.508 136.910,288.508 136.754 C 288.508 136.669,288.686 136.777,288.904 136.994 C 289.250 137.341,290.794 136.703,290.794 136.214 C 290.794 136.070,289.900 136.478,289.759 136.686 C 289.627 136.881,288.565 136.509,287.429 135.869 C 287.184 135.732,286.784 135.506,286.540 135.369 C 285.570 134.822,284.087 134.096,283.952 134.100 C 283.874 134.103,284.324 134.423,284.952 134.812 M110.419 188.296 C 110.495 243.816,110.560 240.306,109.455 240.764 C 109.030 240.940,108.726 241.128,108.779 241.182 C 108.833 241.235,109.322 241.077,109.867 240.830 L 110.857 240.381 110.857 188.804 C 110.857 154.589,110.772 137.228,110.603 137.228 C 110.434 137.228,110.373 154.373,110.419 188.296 M288.680 240.634 C 288.392 240.844,288.323 241.028,288.493 241.133 C 288.641 241.225,288.762 241.195,288.762 241.066 C 288.762 240.938,289.048 240.887,289.397 240.954 C 290.135 241.095,290.229 240.885,289.584 240.540 C 289.279 240.377,288.990 240.407,288.680 240.634 M282.771 244.021 C 279.965 245.651,276.765 247.516,275.660 248.166 C 274.555 248.817,273.251 249.574,272.762 249.849 C 269.109 251.903,264.975 254.312,264.775 254.501 C 264.223 255.024,265.245 254.689,265.911 254.129 C 266.304 253.798,267.312 253.322,268.150 253.071 C 269.198 252.757,269.772 252.430,269.991 252.022 C 270.165 251.695,270.444 251.429,270.611 251.429 C 270.777 251.429,271.334 251.143,271.849 250.794 C 272.363 250.444,272.906 250.159,273.054 250.159 C 273.202 250.159,273.663 249.873,274.078 249.524 C 274.493 249.175,275.059 248.889,275.336 248.889 C 275.613 248.889,275.776 248.787,275.699 248.662 C 275.622 248.537,276.043 248.241,276.636 248.004 C 277.228 247.767,277.770 247.486,277.841 247.380 C 278.079 247.019,279.997 245.920,280.911 245.620 C 281.412 245.456,282.064 245.095,282.361 244.819 C 282.657 244.543,283.070 244.317,283.278 244.317 C 283.486 244.317,283.965 244.032,284.341 243.683 C 284.718 243.333,285.164 243.048,285.331 243.048 C 285.499 243.048,285.842 242.819,286.095 242.540 C 286.348 242.260,286.691 242.032,286.857 242.032 C 287.023 242.032,287.366 241.803,287.619 241.524 C 288.251 240.825,288.458 240.718,282.771 244.021 M105.416 243.016 C 105.077 243.111,104.755 243.324,104.700 243.488 C 104.633 243.688,104.861 243.658,105.379 243.399 C 105.962 243.109,106.536 242.643,106.095 242.819 C 106.060 242.833,105.755 242.922,105.416 243.016 M97.855 247.515 L 97.143 248.174 98.032 247.598 C 99.189 246.848,99.179 246.857,98.850 246.857 C 98.695 246.857,98.247 247.153,97.855 247.515 M95.873 248.635 C 94.880 249.293,95.233 249.293,96.311 248.636 C 96.769 248.357,97.029 248.129,96.889 248.130 C 96.749 248.130,96.292 248.357,95.873 248.635 M90.667 251.556 C 90.493 251.765,90.207 251.937,90.032 251.937 C 89.856 251.937,89.556 252.127,89.364 252.359 C 89.045 252.746,89.070 252.753,89.651 252.448 C 90.543 251.980,91.548 251.175,91.240 251.175 C 91.099 251.175,90.841 251.346,90.667 251.556 M310.603 252.835 C 310.603 253.171,311.340 253.707,311.483 253.475 C 311.566 253.341,311.402 253.108,311.118 252.956 C 310.835 252.805,310.603 252.750,310.603 252.835 M260.698 256.792 C 256.880 258.992,256.577 259.202,256.840 259.464 C 256.934 259.558,257.292 259.332,257.636 258.960 C 257.980 258.589,258.495 258.286,258.782 258.286 C 259.068 258.286,259.511 258.086,259.767 257.841 C 260.023 257.597,260.882 257.057,261.675 256.642 C 262.974 255.962,264.700 254.753,264.381 254.746 C 264.311 254.744,262.654 255.665,260.698 256.792 M320.762 258.836 C 320.762 258.952,320.537 259.048,320.263 259.048 C 319.988 259.048,319.642 259.276,319.492 259.556 C 319.343 259.835,319.052 260.063,318.846 260.063 C 318.640 260.063,317.993 260.410,317.409 260.834 C 316.824 261.257,316.205 261.550,316.033 261.484 C 315.861 261.418,315.529 261.657,315.294 262.015 C 315.060 262.373,314.966 262.609,315.085 262.540 C 315.204 262.472,316.643 261.649,318.283 260.712 C 321.305 258.985,321.797 258.624,321.132 258.624 C 320.928 258.624,320.762 258.720,320.762 258.836 M250.032 262.946 C 246.819 264.808,240.476 268.473,235.937 271.092 C 231.397 273.710,227.568 275.970,227.429 276.114 C 226.864 276.693,228.515 275.943,230.099 274.900 C 231.842 273.753,233.100 273.146,233.524 273.250 C 233.663 273.284,233.697 273.231,233.598 273.133 C 233.316 272.850,235.438 271.535,236.444 271.369 C 236.721 271.324,238.697 269.973,238.851 269.725 C 238.941 269.579,239.336 269.460,239.730 269.460 C 240.424 269.460,241.159 268.927,240.868 268.635 C 240.788 268.556,240.989 268.409,241.314 268.309 C 241.639 268.209,242.396 267.798,242.997 267.397 C 243.598 266.995,244.173 266.667,244.275 266.667 C 244.629 266.667,247.873 264.854,247.873 264.656 C 247.873 264.547,248.302 264.275,248.825 264.050 C 249.965 263.563,251.440 262.722,252.821 261.774 C 253.377 261.392,254.041 261.079,254.296 261.079 C 254.551 261.079,254.696 260.975,254.617 260.847 C 254.538 260.720,254.817 260.463,255.237 260.277 C 255.656 260.092,256.000 259.853,256.000 259.748 C 256.000 259.471,256.364 259.276,250.032 262.946 M313.294 263.238 C 312.779 263.587,312.206 263.873,312.020 263.873 C 311.834 263.873,311.543 264.040,311.373 264.244 C 311.204 264.448,310.304 264.982,309.374 265.430 C 308.444 265.878,307.410 266.454,307.077 266.710 C 306.744 266.965,306.239 267.175,305.955 267.175 C 305.671 267.175,305.514 267.250,305.606 267.342 C 305.698 267.434,305.632 267.686,305.458 267.902 C 305.246 268.167,305.434 268.122,306.032 267.765 C 306.521 267.473,307.778 266.747,308.825 266.151 C 315.092 262.589,315.070 262.603,314.448 262.603 C 314.328 262.603,313.809 262.889,313.294 263.238 M303.365 268.915 C 302.667 269.309,301.410 270.012,300.571 270.479 C 299.733 270.945,298.492 271.706,297.813 272.171 C 297.134 272.636,296.368 273.016,296.111 273.016 C 295.854 273.016,295.553 273.175,295.441 273.369 C 295.329 273.564,294.810 273.901,294.286 274.118 C 293.762 274.336,293.333 274.634,293.333 274.781 C 293.333 274.928,293.048 275.048,292.698 275.048 C 292.349 275.048,291.857 275.248,291.604 275.492 C 291.352 275.737,290.495 276.279,289.701 276.698 C 288.906 277.117,288.255 277.546,288.255 277.651 C 288.254 277.756,288.035 277.841,287.767 277.841 C 287.499 277.841,287.242 277.931,287.196 278.041 C 287.052 278.381,284.775 279.611,284.605 279.441 C 284.517 279.353,284.444 279.459,284.444 279.676 C 284.444 279.895,284.136 280.149,283.754 280.245 C 283.375 280.340,282.609 280.753,282.053 281.162 C 281.498 281.570,280.943 281.905,280.821 281.905 C 280.699 281.905,280.122 282.230,279.538 282.628 C 278.954 283.026,278.157 283.429,277.767 283.525 C 277.378 283.620,277.122 283.800,277.200 283.926 C 277.277 284.051,277.110 284.227,276.829 284.316 C 276.548 284.406,276.317 284.599,276.317 284.747 C 276.317 284.926,276.423 284.931,276.635 284.763 C 276.810 284.625,277.497 284.213,278.163 283.846 C 280.280 282.681,295.848 273.698,298.747 271.968 C 299.420 271.566,300.031 271.238,300.105 271.238 C 300.179 271.238,300.542 271.023,300.913 270.760 C 301.284 270.497,302.273 269.915,303.111 269.466 C 303.949 269.017,304.743 268.547,304.876 268.420 C 305.353 267.966,304.628 268.204,303.365 268.915 M226.286 276.698 C 226.112 276.908,225.871 277.079,225.750 277.079 C 225.629 277.079,224.279 277.822,222.749 278.730 C 221.220 279.638,219.918 280.381,219.857 280.381 C 219.521 280.381,215.827 282.778,216.049 282.852 C 216.195 282.901,216.701 282.697,217.173 282.400 C 220.936 280.027,221.625 279.622,221.905 279.621 C 222.079 279.620,222.222 279.533,222.222 279.427 C 222.222 279.322,223.182 278.779,224.355 278.221 C 225.528 277.663,226.615 277.006,226.770 276.762 C 227.114 276.219,226.726 276.168,226.286 276.698 M210.667 285.636 C 208.152 287.103,204.741 289.091,203.086 290.055 C 201.430 291.019,200.002 291.762,199.911 291.706 C 199.820 291.650,199.776 299.668,199.813 309.523 C 199.850 319.379,199.934 327.389,200.000 327.323 C 200.066 327.257,200.125 319.285,200.130 309.608 C 200.140 293.747,200.180 292.029,200.538 292.167 C 200.797 292.266,200.980 292.149,201.064 291.831 C 201.134 291.563,201.552 291.207,201.992 291.041 C 203.377 290.519,205.325 289.452,205.536 289.100 C 205.648 288.914,205.901 288.762,206.098 288.762 C 206.295 288.762,206.681 288.521,206.955 288.227 C 207.229 287.933,207.562 287.759,207.695 287.841 C 207.827 287.923,208.233 287.716,208.595 287.380 C 208.957 287.044,209.514 286.687,209.832 286.586 C 210.150 286.485,210.529 286.240,210.674 286.042 C 210.819 285.844,211.234 285.649,211.597 285.609 C 211.960 285.569,212.522 285.289,212.847 284.987 C 213.172 284.684,213.867 284.238,214.392 283.996 C 215.219 283.614,215.944 282.874,215.421 282.946 C 215.320 282.959,213.181 284.170,210.667 285.636 M274.724 285.460 C 274.369 285.740,273.969 285.968,273.836 285.968 C 273.703 285.968,273.164 286.309,272.640 286.726 C 272.115 287.143,271.576 287.417,271.443 287.335 C 271.310 287.252,270.952 287.407,270.648 287.678 C 269.740 288.489,268.283 289.276,268.062 289.076 C 267.948 288.973,267.946 289.047,268.058 289.239 C 268.197 289.479,268.150 289.552,267.908 289.470 C 267.714 289.404,267.053 289.732,266.440 290.199 C 265.826 290.666,265.226 291.048,265.106 291.048 C 264.987 291.048,264.889 291.156,264.889 291.289 C 264.889 291.536,265.873 291.002,272.254 287.293 C 276.377 284.897,276.294 284.952,275.759 284.952 C 275.545 284.952,275.080 285.181,274.724 285.460 M262.685 292.159 C 262.291 292.630,261.683 293.103,261.333 293.210 C 260.984 293.316,260.426 293.616,260.093 293.876 C 259.760 294.136,259.346 294.349,259.174 294.349 C 259.002 294.349,258.094 294.863,257.157 295.492 C 256.219 296.121,255.402 296.635,255.340 296.635 C 255.278 296.635,254.745 296.946,254.154 297.326 C 253.563 297.706,252.508 298.291,251.810 298.626 C 251.111 298.962,250.176 299.508,249.731 299.840 C 249.287 300.173,248.749 300.444,248.538 300.444 C 248.326 300.444,248.061 300.590,247.949 300.767 C 247.837 300.945,247.432 301.228,247.048 301.397 C 246.663 301.565,246.349 301.827,246.349 301.978 C 246.349 302.129,246.435 302.204,246.540 302.146 C 247.014 301.881,255.067 297.210,256.889 296.143 C 258.006 295.489,260.210 294.220,261.786 293.324 C 263.966 292.084,264.543 291.652,264.198 291.516 C 263.486 291.235,263.443 291.253,262.685 292.159 M245.079 302.567 C 241.878 304.292,240.168 305.285,239.726 305.677 C 239.506 305.872,239.138 306.032,238.910 306.032 C 238.681 306.032,238.359 306.285,238.193 306.594 C 237.901 307.140,237.909 307.145,238.502 306.763 C 238.837 306.547,240.683 305.487,242.603 304.406 C 244.524 303.325,246.095 302.392,246.095 302.332 C 246.095 302.134,245.724 302.220,245.079 302.567 M236.833 307.442 C 236.557 307.650,236.161 307.755,235.952 307.675 C 235.742 307.594,235.652 307.610,235.752 307.709 C 235.851 307.809,235.805 308.043,235.650 308.230 C 235.495 308.417,235.896 308.275,236.541 307.914 C 237.186 307.553,237.714 307.211,237.714 307.153 C 237.714 306.943,237.323 307.072,236.833 307.442 M233.651 309.236 C 233.022 309.581,232.337 310.048,232.127 310.273 C 231.749 310.679,232.057 310.522,234.413 309.107 C 235.643 308.368,235.049 308.469,233.651 309.236 M229.651 311.297 C 228.917 311.675,228.317 312.140,228.317 312.330 C 228.317 312.590,228.523 312.552,229.143 312.174 C 229.597 311.898,230.368 311.432,230.857 311.139 C 232.144 310.366,231.222 310.487,229.651 311.297 M226.032 313.651 C 225.683 313.924,225.209 314.150,224.980 314.153 C 224.750 314.156,224.496 314.330,224.416 314.540 C 224.336 314.749,224.066 314.921,223.817 314.922 C 223.569 314.923,223.029 315.145,222.619 315.416 C 222.209 315.686,221.779 315.850,221.665 315.779 C 221.550 315.708,221.385 315.838,221.297 316.067 C 221.209 316.296,220.867 316.586,220.537 316.712 C 220.207 316.837,219.937 317.059,219.937 317.205 C 219.937 317.487,222.224 316.265,223.099 315.516 C 223.385 315.271,223.657 315.110,223.703 315.159 C 223.840 315.303,226.794 313.574,226.794 313.349 C 226.794 313.069,226.758 313.083,226.032 313.651 M218.051 318.100 C 217.677 318.447,217.223 318.730,217.042 318.730 C 216.862 318.730,216.393 319.006,216.001 319.342 C 215.609 319.679,215.157 319.904,214.995 319.842 C 214.678 319.720,213.146 320.914,213.354 321.121 C 213.468 321.235,218.507 318.423,219.006 317.966 C 219.123 317.859,219.109 317.704,218.975 317.621 C 218.840 317.538,218.425 317.753,218.051 318.100 M212.325 321.514 C 212.119 321.644,212.013 321.812,212.089 321.888 C 212.165 321.964,212.448 321.860,212.717 321.656 C 213.252 321.251,212.927 321.133,212.325 321.514 M210.603 322.434 C 210.149 322.633,209.778 322.918,209.778 323.069 C 209.778 323.281,211.102 322.652,211.788 322.115 C 212.037 321.920,211.365 322.101,210.603 322.434 M208.381 323.775 C 207.822 324.029,207.194 324.451,206.984 324.712 C 206.700 325.066,206.926 325.003,207.873 324.464 C 209.886 323.319,210.140 322.975,208.381 323.775 M204.049 326.201 C 203.273 326.769,203.745 326.892,204.582 326.340 C 205.034 326.042,205.176 325.844,204.937 325.843 C 204.720 325.842,204.320 326.003,204.049 326.201 M202.207 327.377 C 201.605 327.794,200.834 328.158,200.493 328.186 C 200.152 328.215,199.873 328.381,199.873 328.555 C 199.873 328.945,200.324 328.793,202.095 327.806 C 202.829 327.397,203.429 326.959,203.429 326.833 C 203.429 326.525,203.454 326.514,202.207 327.377 " stroke="none" fill="#7fb662" fill-rule="evenodd"></path><path id="path4" d="M397.905 128.952 C 397.940 198.898,397.997 288.584,398.032 328.254 C 398.067 367.924,398.124 310.695,398.159 201.079 C 398.194 91.463,398.137 1.778,398.032 1.778 C 397.927 1.778,397.870 59.006,397.905 128.952 M263.873 122.781 C 263.873 122.850,264.216 123.085,264.635 123.302 C 265.054 123.518,265.397 123.638,265.397 123.569 C 265.397 123.499,265.054 123.264,264.635 123.048 C 264.216 122.831,263.873 122.711,263.873 122.781 M110.899 137.312 C 110.664 137.547,110.685 240.196,110.921 240.342 C 111.025 240.406,111.111 217.213,111.111 188.801 C 111.111 160.389,111.102 137.143,111.090 137.143 C 111.078 137.143,110.993 137.219,110.899 137.312 M193.893 150.413 L 192.889 151.492 193.968 150.488 C 194.562 149.936,195.048 149.450,195.048 149.409 C 195.048 149.217,194.826 149.409,193.893 150.413 M268.301 150.921 L 267.556 151.746 268.381 151.000 C 269.150 150.305,269.323 150.095,269.127 150.095 C 269.083 150.095,268.712 150.467,268.301 150.921 M265.774 193.524 C 265.774 213.568,265.804 221.768,265.841 211.746 C 265.878 201.724,265.878 185.324,265.841 175.302 C 265.804 165.279,265.774 173.479,265.774 193.524 M191.103 172.444 C 191.103 180.756,191.135 184.156,191.174 180.000 C 191.214 175.844,191.214 169.044,191.174 164.889 C 191.135 160.733,191.103 164.133,191.103 172.444 M133.503 164.233 C 133.268 164.468,133.288 180.514,133.524 180.659 C 133.629 180.724,133.683 177.074,133.644 172.549 L 133.574 164.320 154.596 164.254 L 175.619 164.188 154.646 164.125 C 143.110 164.091,133.596 164.140,133.503 164.233 M206.790 172.381 L 206.857 180.698 226.032 180.701 L 245.206 180.703 226.095 180.636 L 206.984 180.568 206.984 172.444 L 206.984 164.320 228.000 164.254 L 249.016 164.188 227.870 164.125 L 206.723 164.063 206.790 172.381 M292.127 164.254 C 296.422 164.293,303.451 164.293,307.746 164.254 C 312.041 164.215,308.527 164.183,299.937 164.183 C 291.346 164.183,287.832 164.215,292.127 164.254 M143.556 180.762 C 148.829 180.800,157.457 180.800,162.730 180.762 C 168.003 180.723,163.689 180.692,153.143 180.692 C 142.597 180.692,138.283 180.723,143.556 180.762 M288.127 180.755 C 300.526 180.932,310.857 180.935,310.857 180.762 C 310.857 180.657,304.657 180.597,297.079 180.629 C 289.502 180.661,285.473 180.718,288.127 180.755 M180.690 205.079 C 180.690 213.041,180.722 216.262,180.762 212.236 C 180.801 208.210,180.801 201.696,180.762 197.760 C 180.722 193.824,180.690 197.117,180.690 205.079 M193.016 193.603 C 193.016 193.647,193.387 194.018,193.841 194.429 L 194.667 195.175 193.921 194.349 C 193.225 193.580,193.016 193.407,193.016 193.603 M145.584 197.015 L 164.818 197.083 164.891 205.144 L 164.963 213.206 164.958 205.079 L 164.952 196.952 145.651 196.950 L 126.349 196.948 145.584 197.015 M209.315 197.016 C 214.577 197.054,223.263 197.054,228.616 197.016 C 233.969 196.978,229.663 196.946,219.048 196.946 C 208.432 196.946,204.052 196.977,209.315 197.016 M127.429 213.524 C 132.771 213.562,141.514 213.562,146.857 213.524 C 152.200 213.485,147.829 213.454,137.143 213.454 C 126.457 213.454,122.086 213.485,127.429 213.524 M191.153 213.503 C 190.918 213.738,190.939 229.841,191.175 229.841 C 191.279 229.841,191.333 226.185,191.295 221.716 L 191.224 213.590 211.485 213.524 L 231.746 213.457 211.534 213.395 C 200.418 213.361,191.247 213.410,191.153 213.503 M289.077 226.806 C 289.039 235.205,288.922 240.266,288.763 240.458 C 288.622 240.628,288.679 240.618,288.892 240.434 C 289.225 240.147,289.266 238.387,289.206 226.782 L 289.138 213.460 289.077 226.806 M244.635 229.762 C 244.879 229.826,245.279 229.826,245.524 229.762 C 245.768 229.698,245.568 229.646,245.079 229.646 C 244.590 229.646,244.390 229.698,244.635 229.762 M274.222 248.780 C 273.273 249.295,273.331 249.510,274.286 249.016 C 274.705 248.799,275.048 248.568,275.048 248.501 C 275.048 248.338,275.020 248.347,274.222 248.780 M296.571 273.161 C 295.622 273.676,295.680 273.891,296.635 273.397 C 297.054 273.180,297.397 272.949,297.397 272.882 C 297.397 272.719,297.370 272.728,296.571 273.161 M99.766 310.540 C 110.987 310.576,129.272 310.576,140.401 310.540 C 151.530 310.503,142.349 310.473,120.000 310.473 C 97.651 310.473,88.546 310.503,99.766 310.540 M237.318 310.744 C 236.833 311.133,236.834 311.135,237.333 310.905 C 237.613 310.777,238.013 310.608,238.222 310.531 C 238.551 310.409,238.549 310.387,238.207 310.369 C 237.990 310.358,237.590 310.527,237.318 310.744 M253.460 310.537 C 292.874 310.711,321.464 310.712,321.358 310.540 C 321.293 310.435,302.647 310.377,279.922 310.411 C 257.196 310.444,245.289 310.501,253.460 310.537 M105.515 340.444 C 105.515 347.987,105.548 351.036,105.587 347.220 C 105.627 343.404,105.627 337.233,105.587 333.506 C 105.548 329.779,105.515 332.902,105.515 340.444 M133.956 336.000 C 133.956 341.098,133.990 343.184,134.031 340.635 C 134.073 338.086,134.073 333.914,134.031 331.365 C 133.990 328.816,133.956 330.902,133.956 336.000 M183.483 340.444 C 183.484 347.987,183.516 351.036,183.555 347.220 C 183.595 343.404,183.595 337.233,183.555 333.506 C 183.516 329.779,183.483 332.902,183.483 340.444 M228.765 327.037 C 229.081 327.098,229.538 327.095,229.781 327.032 C 230.024 326.968,229.765 326.918,229.206 326.921 C 228.648 326.924,228.449 326.976,228.765 327.037 M223.296 333.778 L 223.238 339.048 225.206 338.997 L 227.175 338.947 225.339 338.859 L 223.503 338.772 223.428 333.640 L 223.354 328.508 223.296 333.778 M100.269 332.635 C 100.226 332.740,100.250 337.625,100.322 343.492 L 100.453 354.159 100.512 343.302 C 100.566 333.507,100.531 331.998,100.269 332.635 M232.186 333.714 C 232.186 334.203,232.238 334.403,232.302 334.159 C 232.366 333.914,232.366 333.514,232.302 333.270 C 232.238 333.025,232.186 333.225,232.186 333.714 M188.503 337.016 C 188.503 337.505,188.556 337.705,188.620 337.460 C 188.683 337.216,188.683 336.816,188.620 336.571 C 188.556 336.327,188.503 336.527,188.503 337.016 M200.440 337.016 C 200.440 337.505,200.492 337.705,200.556 337.460 C 200.620 337.216,200.620 336.816,200.556 336.571 C 200.492 336.327,200.440 336.527,200.440 337.016 M255.551 337.016 C 255.551 337.505,255.603 337.705,255.667 337.460 C 255.731 337.216,255.731 336.816,255.667 336.571 C 255.603 336.327,255.551 336.527,255.551 337.016 M270.535 337.016 C 270.535 337.505,270.587 337.705,270.651 337.460 C 270.715 337.216,270.715 336.816,270.651 336.571 C 270.587 336.327,270.535 336.527,270.535 337.016 M273.075 337.016 C 273.075 337.505,273.127 337.705,273.191 337.460 C 273.255 337.216,273.255 336.816,273.191 336.571 C 273.127 336.327,273.075 336.527,273.075 337.016 M285.011 337.016 C 285.011 337.505,285.064 337.705,285.127 337.460 C 285.191 337.216,285.191 336.816,285.127 336.571 C 285.064 336.327,285.011 336.527,285.011 337.016 M301.519 337.016 C 301.519 337.505,301.572 337.705,301.635 337.460 C 301.699 337.216,301.699 336.816,301.635 336.571 C 301.572 336.327,301.519 336.527,301.519 337.016 M306.146 345.143 C 306.146 350.102,306.180 352.130,306.222 349.651 C 306.263 347.171,306.263 343.114,306.222 340.635 C 306.180 338.156,306.146 340.184,306.146 345.143 M235.540 337.841 L 234.794 338.667 235.619 337.921 C 236.073 337.510,236.444 337.139,236.444 337.095 C 236.444 336.899,236.235 337.072,235.540 337.841 M310.211 337.844 C 310.143 338.019,310.120 341.762,310.159 346.161 L 310.230 354.159 310.289 345.981 L 310.349 337.803 311.810 337.711 L 313.270 337.620 311.802 337.572 C 310.818 337.540,310.293 337.629,310.211 337.844 M147.921 345.016 C 147.921 348.927,147.957 350.491,148.000 348.493 C 148.042 346.494,148.042 343.294,147.999 341.381 C 147.956 339.469,147.921 341.105,147.921 345.016 M243.413 345.016 C 243.413 348.927,243.449 350.491,243.492 348.493 C 243.535 346.494,243.534 343.294,243.491 341.381 C 243.448 339.469,243.413 341.105,243.413 345.016 M151.967 341.079 C 151.967 342.546,152.009 343.146,152.060 342.413 C 152.112 341.679,152.112 340.479,152.060 339.746 C 152.009 339.013,151.967 339.613,151.967 341.079 M247.459 341.079 C 247.459 342.546,247.501 343.146,247.552 342.413 C 247.604 341.679,247.604 340.479,247.552 339.746 C 247.501 339.013,247.459 339.613,247.459 341.079 M262.462 346.413 C 262.462 350.533,262.496 352.219,262.539 350.159 C 262.582 348.098,262.582 344.727,262.539 342.667 C 262.496 340.606,262.462 342.292,262.462 346.413 M223.347 346.413 C 223.347 349.695,223.384 351.038,223.428 349.397 C 223.472 347.756,223.472 345.070,223.428 343.429 C 223.384 341.787,223.347 343.130,223.347 346.413 M316.255 341.460 C 316.257 342.019,316.309 342.218,316.370 341.902 C 316.431 341.586,316.429 341.129,316.365 340.886 C 316.301 340.643,316.252 340.902,316.255 341.460 M300.001 344.508 C 300.003 345.067,300.055 345.265,300.116 344.949 C 300.177 344.634,300.175 344.176,300.111 343.934 C 300.047 343.691,299.998 343.949,300.001 344.508 M151.971 348.444 C 151.971 350.190,152.011 350.905,152.061 350.032 C 152.111 349.159,152.111 347.730,152.061 346.857 C 152.011 345.984,151.971 346.698,151.971 348.444 M247.463 348.444 C 247.463 350.190,247.504 350.905,247.553 350.032 C 247.603 349.159,247.603 347.730,247.553 346.857 C 247.504 345.984,247.463 346.698,247.463 348.444 M133.898 349.905 L 133.954 354.159 134.031 350.148 C 134.090 347.067,134.180 346.180,134.419 346.323 C 134.618 346.443,134.605 346.356,134.382 346.080 C 134.190 345.844,133.990 345.651,133.937 345.651 C 133.884 345.651,133.867 347.565,133.898 349.905 M154.359 352.442 C 155.238 352.492,156.609 352.492,157.407 352.441 C 158.204 352.391,157.486 352.350,155.810 352.351 C 154.133 352.351,153.481 352.393,154.359 352.442 M160.234 353.207 C 160.355 354.083,160.373 354.101,160.457 353.429 C 160.507 353.028,160.447 352.600,160.325 352.477 C 160.197 352.349,160.158 352.661,160.234 353.207 M249.340 352.440 C 249.937 352.494,250.852 352.493,251.372 352.439 C 251.892 352.384,251.403 352.340,250.286 352.341 C 249.168 352.342,248.743 352.387,249.340 352.440 M255.160 352.435 C 255.533 352.505,255.750 352.763,255.818 353.222 C 255.910 353.837,255.918 353.829,255.897 353.143 C 255.877 352.513,255.763 352.377,255.238 352.356 C 254.717 352.336,254.703 352.350,255.160 352.435 M294.540 352.433 C 294.854 352.494,295.368 352.494,295.683 352.433 C 295.997 352.373,295.740 352.323,295.111 352.323 C 294.483 352.323,294.225 352.373,294.540 352.433 M297.722 352.441 C 298.390 352.493,299.418 352.493,300.008 352.440 C 300.597 352.386,300.051 352.343,298.794 352.344 C 297.537 352.345,297.054 352.388,297.722 352.441 M229.016 353.957 C 229.330 354.018,229.844 354.018,230.159 353.957 C 230.473 353.896,230.216 353.847,229.587 353.847 C 228.959 353.847,228.702 353.896,229.016 353.957 M85.333 354.801 C 81.513 354.900,82.797 354.939,90.159 354.946 C 99.964 354.956,101.598 354.871,94.222 354.735 C 92.197 354.697,88.197 354.727,85.333 354.801 M103.302 354.983 C 104.733 355.028,107.076 355.028,108.508 354.983 C 109.940 354.938,108.768 354.901,105.905 354.901 C 103.041 354.901,101.870 354.938,103.302 354.983 M115.888 354.984 C 117.817 355.027,120.903 355.027,122.745 354.983 C 124.588 354.940,123.010 354.905,119.238 354.905 C 115.467 354.905,113.959 354.940,115.888 354.984 M126.921 354.977 C 127.375 355.034,128.117 355.034,128.571 354.977 C 129.025 354.921,128.654 354.875,127.746 354.875 C 126.838 354.875,126.467 354.921,126.921 354.977 M133.397 354.984 C 135.597 355.026,139.197 355.026,141.397 354.984 C 143.597 354.941,141.797 354.907,137.397 354.907 C 132.997 354.907,131.197 354.941,133.397 354.984 M146.217 354.977 C 146.667 355.033,147.467 355.034,147.994 354.979 C 148.521 354.924,148.152 354.878,147.175 354.877 C 146.197 354.876,145.766 354.921,146.217 354.977 M156.399 354.984 C 160.495 355.023,167.123 355.023,171.129 354.984 C 175.135 354.945,171.784 354.913,163.683 354.913 C 155.581 354.913,152.303 354.945,156.399 354.984 M180.000 354.982 C 180.873 355.031,182.302 355.031,183.175 354.982 C 184.048 354.932,183.333 354.892,181.587 354.892 C 179.841 354.892,179.127 354.932,180.000 354.982 M186.349 354.982 C 187.222 355.031,188.651 355.031,189.524 354.982 C 190.397 354.932,189.683 354.892,187.937 354.892 C 186.190 354.892,185.476 354.932,186.349 354.982 M193.455 354.977 C 193.906 355.033,194.706 355.034,195.232 354.979 C 195.759 354.924,195.390 354.878,194.413 354.877 C 193.435 354.876,193.004 354.921,193.455 354.977 M201.714 354.984 C 204.613 355.025,209.356 355.025,212.254 354.984 C 215.152 354.943,212.781 354.910,206.984 354.910 C 201.187 354.910,198.816 354.943,201.714 354.984 M229.035 354.984 C 235.366 355.022,245.652 355.022,251.892 354.984 C 258.132 354.946,252.952 354.915,240.381 354.915 C 227.810 354.915,222.704 354.946,229.035 354.984 M264.063 354.977 C 264.517 355.034,265.260 355.034,265.714 354.977 C 266.168 354.921,265.797 354.875,264.889 354.875 C 263.981 354.875,263.610 354.921,264.063 354.977 M270.298 354.983 C 271.527 355.030,273.470 355.029,274.616 354.982 C 275.761 354.935,274.756 354.897,272.381 354.898 C 270.006 354.898,269.069 354.936,270.298 354.983 M278.040 354.981 C 278.778 355.033,279.921 355.032,280.580 354.980 C 281.239 354.928,280.635 354.886,279.238 354.886 C 277.841 354.887,277.302 354.930,278.040 354.981 M283.481 354.982 C 284.418 355.030,286.018 355.031,287.037 354.982 C 288.055 354.934,287.289 354.894,285.333 354.894 C 283.378 354.893,282.544 354.933,283.481 354.982 M292.381 354.983 C 294.162 355.027,297.076 355.027,298.857 354.983 C 300.638 354.940,299.181 354.904,295.619 354.904 C 292.057 354.904,290.600 354.940,292.381 354.983 M303.051 354.976 C 303.437 355.034,304.009 355.033,304.321 354.972 C 304.633 354.912,304.317 354.864,303.619 354.866 C 302.921 354.868,302.665 354.918,303.051 354.976 M306.231 354.981 C 306.969 355.033,308.112 355.032,308.770 354.980 C 309.429 354.928,308.825 354.886,307.429 354.886 C 306.032 354.887,305.493 354.930,306.231 354.981 M311.310 354.981 C 312.048 355.033,313.191 355.032,313.850 354.980 C 314.509 354.928,313.905 354.886,312.508 354.886 C 311.111 354.887,310.572 354.930,311.310 354.981 M316.645 354.982 C 317.523 355.032,318.895 355.031,319.692 354.981 C 320.490 354.931,319.771 354.890,318.095 354.891 C 316.419 354.891,315.766 354.932,316.645 354.982 " stroke="none" fill="#97b2b8" fill-rule="evenodd"></path></g></svg>